<svg width="713" height="150" viewBox="0 0 713 150" fill="none" xmlns="http://www.w3.org/2000/svg">
<g filter="url(#filter0_d_0_1)">
<rect width="207" height="52" transform="translate(476.551 58) rotate(3.91529)" fill="#181818"/>
<path d="M498.002 96.0534C503.788 96.4494 508.799 92.0804 509.195 86.2949C509.591 80.5094 505.222 75.4984 499.436 75.1025C493.651 74.7065 488.64 79.0755 488.244 84.861C487.848 90.6464 492.217 95.6575 498.002 96.0534Z" fill="#EA4C89"/>
<path fill-rule="evenodd" clip-rule="evenodd" d="M499.436 75.1025C493.653 74.7067 488.64 79.0779 488.244 84.861C487.848 90.6441 492.219 95.6576 498.002 96.0534C503.774 96.4485 508.799 92.078 509.195 86.2949C509.591 80.5118 505.208 75.4975 499.436 75.1025ZM506.025 80.4047C507.171 82.0127 507.788 84.0069 507.666 86.1104C507.375 86.0334 504.462 85.229 501.46 85.4002C501.402 85.2479 501.356 85.0849 501.298 84.9212C501.146 84.477 500.972 84.0199 500.796 83.5855C504.183 82.4703 505.815 80.6415 506.025 80.4047ZM499.331 76.6476C501.603 76.8032 503.624 77.7976 505.107 79.3032C504.933 79.5195 503.457 81.2335 500.194 82.2087C498.913 79.4157 497.439 77.1003 497.212 76.7424C497.894 76.6292 498.603 76.5979 499.331 76.6476ZM495.467 77.2279C495.684 77.5624 497.123 79.8868 498.431 82.6245C494.173 83.4518 490.482 83.1764 490.085 83.1492C490.854 80.4166 492.886 78.2385 495.467 77.2279ZM489.766 84.9765C489.772 84.8857 489.778 84.7948 489.784 84.7039C490.17 84.7417 494.506 85.0955 499.063 84.0605C499.29 84.5783 499.494 85.1058 499.686 85.6327C499.57 85.659 499.443 85.6845 499.327 85.7108C494.612 86.8835 491.879 90.783 491.652 91.1099C490.339 89.4334 489.608 87.2716 489.766 84.9765ZM498.107 94.531C496.039 94.3895 494.178 93.5544 492.748 92.2693C492.93 91.9508 494.987 88.5757 500.152 87.1599C500.176 87.1501 500.187 87.1509 500.21 87.1411C501.248 90.4882 501.572 93.2614 501.655 94.0547C500.544 94.4466 499.345 94.6157 498.107 94.531ZM503.199 93.3385C503.146 92.7869 502.847 90.1411 501.897 86.8456C504.734 86.5946 507.138 87.4897 507.438 87.613C506.881 90.0747 505.303 92.1241 503.199 93.3385Z" fill="#C32361"/>
<path d="M529.299 92.1815L529.895 83.4746L535.353 83.8482L535.276 84.9791L531.131 84.6954L530.949 87.3483L534.81 87.6125L534.732 88.7391L530.872 88.4749L530.69 91.1405L534.886 91.4277L534.808 92.5586L529.299 92.1815ZM538.277 84.0483L537.681 92.7552L536.41 92.6682L537.006 83.9613L538.277 84.0483ZM542.133 93.1923C541.521 93.1504 540.996 92.9736 540.559 92.6617C540.122 92.3499 539.795 91.9331 539.577 91.4114C539.359 90.8896 539.273 90.2914 539.32 89.6169C539.366 88.9395 539.533 88.3557 539.82 87.8657C540.107 87.3756 540.488 87.0059 540.963 86.7565C541.439 86.5072 541.983 86.4034 542.595 86.4453C543.207 86.4872 543.732 86.6641 544.169 86.9759C544.606 87.2877 544.933 87.7059 545.151 88.2305C545.368 88.7551 545.454 89.3561 545.408 90.0335C545.361 90.7081 545.195 91.289 544.908 91.7762C544.621 92.2635 544.24 92.6318 543.765 92.8811C543.289 93.1305 542.745 93.2342 542.133 93.1923ZM542.21 92.1255C542.607 92.1527 542.943 92.0703 543.218 91.8784C543.493 91.6865 543.705 91.4205 543.854 91.0805C544.005 90.7406 544.095 90.3609 544.124 89.9414C544.152 89.5248 544.115 89.1378 544.011 88.7804C543.911 88.4205 543.737 88.1252 543.491 87.8948C543.245 87.6644 542.923 87.5356 542.526 87.5085C542.127 87.4811 541.788 87.5647 541.51 87.7592C541.234 87.954 541.021 88.2227 540.869 88.5654C540.721 88.9055 540.632 89.2838 540.604 89.7005C540.575 90.12 540.611 90.5083 540.712 90.8654C540.816 91.2228 540.991 91.5152 541.237 91.7428C541.486 91.9706 541.811 92.0982 542.21 92.1255ZM548.142 89.5757L547.876 93.453L546.605 93.366L547.052 86.8358L548.272 86.9193L548.199 87.9822L548.28 87.9877C548.454 87.6522 548.708 87.3905 549.043 87.2027C549.38 87.0151 549.794 86.9381 550.285 86.9716C550.73 87.0021 551.113 87.1223 551.435 87.3322C551.756 87.5393 551.997 87.832 552.156 88.2103C552.315 88.5885 552.377 89.0469 552.34 89.5854L552.055 93.739L550.784 93.652L551.058 89.6514C551.09 89.1781 550.992 88.7998 550.764 88.5165C550.536 88.2304 550.206 88.0725 549.776 88.0431C549.481 88.0229 549.214 88.0687 548.976 88.1805C548.741 88.2926 548.548 88.4673 548.398 88.7048C548.251 88.9396 548.165 89.2299 548.142 89.5757ZM557.627 85.3726L559.221 85.4817L561.53 92.4397L561.632 92.4467L564.867 85.8681L566.461 85.9773L565.865 94.6842L564.615 94.5986L565.046 88.298L564.966 88.2925L561.967 94.4046L560.93 94.3336L558.793 87.8657L558.712 87.8602L558.281 94.1651L557.031 94.0795L557.627 85.3726ZM571.995 92.3829L572.257 88.5608L573.532 88.6481L573.085 95.1783L571.835 95.0928L571.913 93.9619L571.845 93.9572C571.67 94.2956 571.41 94.5696 571.062 94.7793C570.718 94.9864 570.3 95.0731 569.81 95.0396C569.39 95.0109 569.025 94.8933 568.715 94.687C568.407 94.478 568.174 94.1844 568.015 93.8062C567.859 93.4281 567.799 92.9699 567.836 92.4313L568.12 88.2777L569.391 88.3647L569.117 92.3653C569.087 92.8103 569.186 93.173 569.414 93.4535C569.643 93.7339 569.954 93.8876 570.348 93.9146C570.586 93.9309 570.827 93.8876 571.07 93.7846C571.317 93.6819 571.526 93.5154 571.698 93.2852C571.874 93.0551 571.972 92.7543 571.995 92.3829ZM580.024 90.6942L578.858 90.8194C578.82 90.6687 578.753 90.5232 578.657 90.3828C578.564 90.2426 578.433 90.124 578.263 90.0269C578.093 89.9299 577.876 89.8723 577.613 89.8543C577.253 89.8297 576.947 89.8899 576.695 90.0349C576.443 90.1772 576.309 90.3744 576.291 90.6267C576.277 90.8449 576.345 91.0262 576.498 91.1704C576.65 91.3147 576.903 91.4417 577.258 91.5513L578.279 91.8604C578.87 92.0404 579.303 92.285 579.578 92.5943C579.853 92.9036 579.975 93.2892 579.943 93.7512C579.916 94.1423 579.779 94.4832 579.531 94.7738C579.287 95.0617 578.957 95.2784 578.543 95.4237C578.132 95.5693 577.662 95.624 577.135 95.5879C576.404 95.5379 575.818 95.3411 575.377 94.9977C574.937 94.6515 574.684 94.1857 574.619 93.6004L575.86 93.4974C575.915 93.8229 576.055 94.076 576.282 94.2567C576.509 94.4345 576.814 94.5365 577.197 94.5627C577.613 94.5912 577.952 94.5276 578.214 94.3718C578.475 94.2131 578.614 94.0077 578.632 93.7554C578.646 93.5513 578.581 93.3746 578.437 93.2253C578.297 93.0761 578.073 92.9554 577.766 92.8632L576.677 92.5453C576.077 92.3647 575.642 92.1128 575.37 91.7895C575.102 91.4665 574.984 91.0725 575.016 90.6077C575.042 90.2222 575.173 89.8923 575.408 89.618C575.643 89.3436 575.956 89.1387 576.347 89.0031C576.738 88.8647 577.179 88.8123 577.669 88.8458C578.375 88.8941 578.92 89.0852 579.304 89.4191C579.689 89.7501 579.929 90.1751 580.024 90.6942ZM582.532 93.5995L582.63 92.0472L582.851 92.0623L585.642 89.477L587.164 89.5811L583.981 92.5241L583.782 92.5104L582.532 93.5995ZM581.212 95.7345L581.808 87.0276L583.079 87.1146L582.483 95.8215L581.212 95.7345ZM585.336 96.0167L583.21 92.7532L584.146 91.9246L586.896 96.1235L585.336 96.0167ZM595.227 91.7646L595.152 92.87L591.291 92.6058L591.367 91.5004L595.227 91.7646ZM605.044 90.9159C605.027 90.5104 604.861 90.1858 604.547 89.9422C604.234 89.6958 603.828 89.5555 603.329 89.5214C602.972 89.4969 602.659 89.5325 602.39 89.628C602.122 89.7207 601.909 89.8599 601.751 90.0455C601.596 90.2286 601.51 90.4434 601.493 90.69C601.479 90.8969 601.515 91.0787 601.601 91.2355C601.69 91.3925 601.81 91.5275 601.962 91.6404C602.117 91.7507 602.284 91.8461 602.464 91.9267C602.643 92.0045 602.817 92.0705 602.984 92.1247L603.819 92.4039C604.092 92.491 604.371 92.6026 604.655 92.7387C604.939 92.8749 605.199 93.0465 605.435 93.2535C605.672 93.4604 605.857 93.7095 605.991 94.0005C606.128 94.2918 606.182 94.633 606.156 95.0241C606.122 95.5173 605.964 95.9465 605.683 96.3116C605.405 96.677 605.017 96.9537 604.52 97.1418C604.026 97.3301 603.439 97.401 602.759 97.3544C602.107 97.3098 601.55 97.1677 601.088 96.9283C600.626 96.6888 600.273 96.3699 600.03 95.9717C599.787 95.5706 599.669 95.107 599.677 94.5807L600.994 94.6709C600.998 94.9872 601.083 95.2564 601.247 95.4783C601.414 95.6977 601.634 95.8679 601.908 95.9892C602.185 96.1078 602.492 96.1786 602.829 96.2017C603.2 96.2271 603.534 96.1916 603.831 96.0952C604.131 95.9961 604.372 95.8475 604.554 95.6492C604.736 95.448 604.836 95.2058 604.856 94.9223C604.873 94.6644 604.814 94.4482 604.678 94.2737C604.545 94.0995 604.357 93.9499 604.115 93.8252C603.876 93.7006 603.603 93.5865 603.297 93.483L602.287 93.132C601.603 92.8944 601.069 92.5774 600.687 92.181C600.306 91.7848 600.137 91.2834 600.179 90.6769C600.213 90.1752 600.379 89.7466 600.677 89.3911C600.974 89.0356 601.363 88.7703 601.842 88.5952C602.321 88.4173 602.852 88.3483 603.436 88.3883C604.026 88.4286 604.539 88.5677 604.975 88.8054C605.415 89.0434 605.752 89.3527 605.988 89.7333C606.224 90.1111 606.332 90.5342 606.311 91.0026L605.044 90.9159ZM610.264 97.8553C609.621 97.8113 609.076 97.6359 608.63 97.3291C608.187 97.0198 607.857 96.6056 607.639 96.0867C607.424 95.5651 607.34 94.9656 607.386 94.2882C607.432 93.6193 607.597 93.0383 607.881 92.5452C608.168 92.0523 608.547 91.6782 609.017 91.4228C609.49 91.1675 610.03 91.0607 610.637 91.1022C611.005 91.1274 611.358 91.2128 611.696 91.3583C612.033 91.5039 612.33 91.7164 612.587 91.996C612.844 92.2756 613.038 92.6291 613.168 93.0566C613.299 93.4813 613.344 93.9898 613.303 94.5821L613.272 95.0328L608.081 94.6775L608.146 93.7252L612.092 93.9952C612.115 93.6608 612.067 93.3599 611.948 93.0927C611.83 92.8226 611.653 92.6041 611.417 92.437C611.183 92.2701 610.902 92.1754 610.573 92.1529C610.216 92.1284 609.898 92.195 609.62 92.3524C609.345 92.5073 609.125 92.7201 608.961 92.9908C608.801 93.2588 608.709 93.5558 608.687 93.8818L608.636 94.6258C608.606 95.0623 608.657 95.4388 608.789 95.7554C608.924 96.0721 609.125 96.3208 609.392 96.5014C609.658 96.6791 609.978 96.7807 610.349 96.8061C610.59 96.8226 610.812 96.8036 611.015 96.7491C611.218 96.6919 611.397 96.5987 611.551 96.4697C611.705 96.3408 611.827 96.1768 611.918 95.978L613.106 96.2772C612.985 96.6249 612.791 96.9234 612.524 97.1727C612.259 97.4195 611.934 97.6037 611.55 97.7255C611.169 97.8446 610.74 97.8879 610.264 97.8553ZM616.376 98.2864C615.962 98.2581 615.593 98.1559 615.269 97.98C614.945 97.8012 614.696 97.5578 614.52 97.2496C614.348 96.9417 614.276 96.5737 614.306 96.1457C614.331 95.7773 614.422 95.4788 614.58 95.2505C614.738 95.0221 614.943 94.8467 615.193 94.7243C615.443 94.6019 615.72 94.5155 616.022 94.465C616.325 94.4145 616.632 94.3814 616.943 94.3657C617.337 94.3471 617.657 94.332 617.903 94.3203C618.149 94.3058 618.329 94.2684 618.445 94.2079C618.56 94.1475 618.623 94.0407 618.633 93.8877L618.635 93.8579C618.661 93.4866 618.575 93.1917 618.38 92.9733C618.187 92.7551 617.885 92.6319 617.474 92.6038C617.046 92.5745 616.702 92.6464 616.442 92.8194C616.186 92.9898 616.003 93.1865 615.894 93.4097L614.718 93.0559C614.887 92.6688 615.115 92.3626 615.404 92.1375C615.696 91.9098 616.024 91.7528 616.389 91.6667C616.754 91.5778 617.133 91.5468 617.527 91.5738C617.788 91.5916 618.062 91.6417 618.35 91.7241C618.641 91.8037 618.908 91.9331 619.152 92.1121C619.399 92.2913 619.594 92.5368 619.738 92.8484C619.882 93.1573 619.938 93.5498 619.905 94.026L619.608 98.3624L618.367 98.2774L618.428 97.3846L618.377 97.3812C618.284 97.5399 618.149 97.693 617.974 97.8405C617.799 97.988 617.579 98.1053 617.313 98.1925C617.048 98.2797 616.736 98.311 616.376 98.2864ZM616.722 97.285C617.073 97.309 617.379 97.2601 617.638 97.1383C617.899 97.0167 618.103 96.8484 618.249 96.6334C618.397 96.4158 618.481 96.178 618.498 95.9201L618.556 95.0783C618.508 95.1206 618.417 95.1571 618.284 95.1878C618.154 95.216 618.005 95.2386 617.839 95.2557C617.673 95.2699 617.511 95.283 617.354 95.295C617.196 95.3042 617.065 95.3123 616.959 95.3193C616.71 95.3336 616.481 95.3706 616.272 95.4303C616.066 95.4903 615.897 95.5855 615.766 95.716C615.637 95.8439 615.566 96.0212 615.55 96.248C615.529 96.5626 615.628 96.8086 615.85 96.9861C616.071 97.1607 616.362 97.2603 616.722 97.285ZM621.301 98.4783L621.748 91.9481L622.977 92.0322L622.906 93.0695L622.974 93.0742C623.117 92.7309 623.346 92.4689 623.66 92.2882C623.977 92.1049 624.327 92.0264 624.71 92.0526C624.789 92.058 624.883 92.0672 624.99 92.0803C625.1 92.0935 625.186 92.1065 625.248 92.1193L625.164 93.3352C625.114 93.3175 625.025 93.2957 624.896 93.2698C624.767 93.241 624.637 93.2222 624.506 93.2133C624.206 93.1927 623.934 93.2381 623.69 93.3496C623.449 93.4584 623.253 93.6201 623.101 93.8347C622.95 94.0464 622.865 94.294 622.846 94.5775L622.573 98.5653L621.301 98.4783ZM628.404 99.0968C627.772 99.0535 627.238 98.8732 626.801 98.5557C626.367 98.2355 626.046 97.8135 625.837 97.2895C625.628 96.7654 625.546 96.1761 625.59 95.5213C625.636 94.8581 625.801 94.2814 626.085 93.7911C626.369 93.298 626.748 92.9239 627.221 92.6686C627.694 92.4134 628.238 92.3068 628.853 92.3489C629.349 92.3829 629.785 92.5053 630.161 92.7161C630.536 92.924 630.832 93.2005 631.048 93.5456C631.266 93.8909 631.383 94.2847 631.398 94.7271L630.161 94.6425C630.114 94.3317 629.976 94.0575 629.748 93.8197C629.522 93.5821 629.206 93.4495 628.801 93.4217C628.447 93.3975 628.13 93.4698 627.851 93.6386C627.574 93.8048 627.351 94.0543 627.18 94.3872C627.009 94.7172 626.908 95.1146 626.876 95.5795C626.844 96.0556 626.888 96.4715 627.009 96.8272C627.13 97.1829 627.315 97.4647 627.566 97.6726C627.819 97.8808 628.126 97.9971 628.486 98.0218C628.727 98.0383 628.948 98.0093 629.15 97.9348C629.354 97.8577 629.529 97.7401 629.674 97.582C629.821 97.424 629.93 97.2293 630 96.9978L631.237 97.0824C631.163 97.5016 631 97.8692 630.747 98.1851C630.495 98.501 630.17 98.7407 629.771 98.9042C629.376 99.0679 628.92 99.1321 628.404 99.0968ZM633.992 95.4514L633.726 99.3287L632.455 99.2417L633.051 90.5347L634.305 90.6206L634.083 93.8602L634.164 93.8657C634.341 93.5247 634.594 93.2615 634.923 93.0762C635.252 92.8908 635.67 92.8155 636.177 92.8502C636.625 92.8809 637.01 92.9997 637.332 93.2069C637.656 93.4142 637.898 93.7069 638.057 94.0852C638.22 94.4608 638.282 94.9206 638.245 95.4648L637.961 99.6185L636.689 99.5315L636.963 95.5309C636.996 95.0519 636.898 94.6722 636.67 94.3917C636.441 94.1084 636.107 93.9517 635.668 93.9216C635.368 93.9011 635.094 93.9464 634.847 94.0577C634.603 94.1691 634.405 94.3435 634.252 94.5807C634.102 94.8154 634.015 95.1056 633.992 95.4514Z" fill="url(#paint0_linear_0_1)"/>
<path d="M666.38 93.2734L663.365 95.9016L660.736 92.8871L659.732 93.7632L662.36 96.7777L659.345 99.406L660.221 100.411L663.236 97.7826L665.865 100.797L666.87 99.921L664.241 96.9065L667.256 94.2782L666.38 93.2734Z" fill="white"/>
</g>
<g filter="url(#filter1_d_0_1)">
<rect width="208" height="54" transform="translate(295 34.4211) rotate(-2.04466)" fill="#181818"/>
<path d="M318.57 70.9868C313.583 70.2893 309.64 66.1106 309.455 60.9223C309.249 55.1509 313.802 50.2604 319.573 50.0543C325.345 49.8483 330.235 54.4017 330.441 60.173C330.627 65.3614 326.991 69.8106 322.067 70.8619L321.468 70.4164L319.136 70.4996L318.57 70.9868Z" fill="url(#paint1_linear_0_1)"/>
<path d="M324.133 63.3169L324.495 60.3854L321.697 60.4853L321.624 58.4449C321.595 57.6288 321.864 56.9771 323.146 56.9313L324.487 56.8835L324.391 54.2019C323.629 54.1123 322.809 54.0249 322.051 54.0519C319.661 54.1372 318.022 55.655 318.116 58.2783L318.199 60.6102L315.576 60.7038L315.68 63.6187L318.303 63.525L318.568 70.9286C319.155 71.0244 319.74 71.0619 320.323 71.0411C320.906 71.0203 321.487 70.9411 322.065 70.8037L321.801 63.4001L324.133 63.3169Z" fill="white"/>
<path d="M337.057 64.4398L336.745 55.7181L339.854 55.6071C340.533 55.5829 341.099 55.6863 341.554 55.9174C342.008 56.1485 342.354 56.4745 342.591 56.8953C342.827 57.3132 342.955 57.7891 342.974 58.3228C342.993 58.8594 342.898 59.3461 342.689 59.7828C342.483 60.2165 342.16 60.5664 341.721 60.8322C341.284 61.0951 340.727 61.2387 340.052 61.2628L337.914 61.3391L337.874 60.2233L339.893 60.1513C340.321 60.136 340.666 60.0497 340.928 59.8926C341.19 59.7326 341.378 59.5212 341.494 59.2583C341.61 58.9955 341.662 58.6994 341.65 58.3701C341.638 58.0408 341.565 57.7506 341.431 57.4995C341.297 57.2485 341.093 57.0553 340.818 56.9202C340.546 56.7849 340.191 56.7251 339.754 56.7407L338.101 56.7997L338.373 64.3929L337.057 64.4398ZM344.625 64.1696L344.392 57.6283L345.623 57.5844L345.66 58.6235L345.728 58.6211C345.834 58.2648 346.035 57.9805 346.328 57.7681C346.625 57.5529 346.965 57.4384 347.348 57.4247C347.428 57.4219 347.521 57.4214 347.629 57.4232C347.74 57.4249 347.827 57.4289 347.89 57.4352L347.933 58.6532C347.882 58.6408 347.79 58.6285 347.659 58.6161C347.528 58.6009 347.397 58.5956 347.266 58.6003C346.965 58.611 346.699 58.6845 346.468 58.8206C346.24 58.9539 346.062 59.1351 345.933 59.3642C345.805 59.5905 345.746 59.8456 345.756 60.1296L345.899 64.1242L344.625 64.1696ZM351.754 64.0473C351.14 64.0692 350.6 63.9478 350.133 63.683C349.666 63.4183 349.297 63.0377 349.026 62.5414C348.756 62.0451 348.608 61.459 348.584 60.7833C348.56 60.1048 348.665 59.5069 348.9 58.9897C349.134 58.4725 349.475 58.0652 349.922 57.7678C350.369 57.4704 350.899 57.3107 351.512 57.2888C352.126 57.267 352.666 57.3884 353.133 57.6531C353.6 57.9179 353.969 58.2999 354.24 58.799C354.511 59.2982 354.658 59.8871 354.682 60.5656C354.707 61.2413 354.601 61.8364 354.367 62.3507C354.132 62.8651 353.791 63.271 353.344 63.5684C352.897 63.8658 352.367 64.0254 351.754 64.0473ZM351.72 62.9783C352.117 62.9641 352.443 62.8473 352.697 62.6278C352.95 62.4084 353.133 62.1219 353.246 61.7682C353.361 61.4144 353.411 61.0275 353.396 60.6073C353.381 60.1899 353.304 59.8089 353.163 59.4643C353.026 59.1167 352.823 58.8411 352.554 58.6375C352.285 58.4339 351.952 58.3392 351.555 58.3534C351.154 58.3676 350.826 58.486 350.57 58.7083C350.316 58.9306 350.132 59.22 350.016 59.5766C349.904 59.9303 349.855 60.3158 349.87 60.7332C349.885 61.1533 349.961 61.5358 350.099 61.8806C350.239 62.2252 350.443 62.4979 350.712 62.6987C350.984 62.8994 351.319 62.9925 351.72 62.9783ZM358.673 63.796C358.145 63.8149 357.669 63.6969 357.244 63.4419C356.823 63.1841 356.486 62.8081 356.232 62.314C355.981 61.817 355.843 61.215 355.818 60.508C355.793 59.8011 355.889 59.1922 356.107 58.6812C356.327 58.1702 356.64 57.7738 357.045 57.4922C357.45 57.2105 357.915 57.0603 358.44 57.0415C358.846 57.027 359.175 57.0835 359.427 57.211C359.682 57.3355 359.88 57.4847 360.023 57.6587C360.168 57.8326 360.282 57.9864 360.363 58.1199L360.44 58.1172L360.324 54.8763L361.598 54.8309L361.909 63.5526L360.665 63.597L360.629 62.5792L360.523 62.583C360.451 62.7248 360.346 62.8878 360.208 63.0718C360.072 63.2557 359.882 63.4189 359.637 63.5612C359.391 63.7036 359.07 63.7819 358.673 63.796ZM358.915 62.7C359.281 62.687 359.587 62.5794 359.833 62.3773C360.082 62.1723 360.265 61.8943 360.383 61.5432C360.504 61.1921 360.557 60.7866 360.54 60.3266C360.524 59.8724 360.444 59.4772 360.302 59.1412C360.159 58.8052 359.958 58.5466 359.698 58.3654C359.439 58.1842 359.123 58.1002 358.751 58.1135C358.368 58.1272 358.052 58.2379 357.804 58.4458C357.555 58.6537 357.372 58.9317 357.254 59.2799C357.138 59.628 357.088 60.0178 357.103 60.4493C357.119 60.8866 357.198 61.2774 357.341 61.622C357.485 61.9665 357.687 62.2364 357.95 62.4317C358.216 62.6241 358.537 62.7135 358.915 62.7ZM367.773 60.627L367.637 56.7985L368.914 56.7529L369.148 63.2942L367.896 63.3389L367.855 62.206L367.787 62.2085C367.649 62.5631 367.418 62.8627 367.094 63.1074C366.773 63.3491 366.367 63.4787 365.876 63.4962C365.456 63.5112 365.08 63.4323 364.75 63.2593C364.423 63.0833 364.16 62.8155 363.962 62.4559C363.768 62.0961 363.661 61.6465 363.641 61.1071L363.493 56.9464L364.766 56.9009L364.909 60.9083C364.925 61.3541 365.061 61.7046 365.318 61.9598C365.574 62.215 365.9 62.3356 366.294 62.3215C366.533 62.313 366.768 62.2449 366.999 62.1172C367.233 61.9895 367.424 61.8021 367.572 61.5552C367.722 61.3082 367.789 60.9988 367.773 60.627ZM373.619 63.2667C372.986 63.2893 372.435 63.1654 371.968 62.895C371.503 62.6216 371.14 62.2352 370.878 61.7357C370.615 61.2362 370.472 60.6586 370.449 60.0027C370.425 59.3384 370.529 58.7476 370.761 58.2305C370.993 57.7106 371.33 57.2991 371.774 56.9961C372.218 56.6932 372.748 56.5307 373.365 56.5087C373.861 56.491 374.308 56.5674 374.703 56.7381C375.099 56.9059 375.421 57.1502 375.672 57.471C375.925 57.7917 376.082 58.1713 376.143 58.6098L374.904 58.654C374.825 58.3498 374.659 58.0914 374.407 57.8786C374.158 57.6658 373.83 57.5666 373.424 57.5811C373.069 57.5938 372.762 57.6986 372.502 57.8955C372.244 58.0895 372.048 58.3608 371.912 58.7096C371.777 59.0556 371.717 59.4614 371.734 59.927C371.751 60.404 371.838 60.8131 371.995 61.1543C372.153 61.4955 372.367 61.7565 372.637 61.9372C372.911 62.1179 373.228 62.2018 373.589 62.189C373.83 62.1804 374.047 62.1285 374.24 62.0335C374.435 61.9356 374.597 61.8005 374.724 61.6282C374.855 61.4558 374.942 61.2509 374.988 61.0133L376.227 60.9691C376.197 61.3937 376.073 61.7762 375.855 62.1166C375.636 62.457 375.338 62.7292 374.958 62.9332C374.582 63.1371 374.135 63.2483 373.619 63.2667ZM380.483 56.3399L380.519 57.3619L376.946 57.4895L376.91 56.4674L380.483 56.3399ZM377.812 54.866L379.085 54.8206L379.306 61.0084C379.315 61.2554 379.359 61.44 379.437 61.5623C379.515 61.6818 379.613 61.7621 379.731 61.8034C379.852 61.8417 379.982 61.8584 380.121 61.8534C380.223 61.8498 380.312 61.8395 380.389 61.8226C380.465 61.8056 380.524 61.7921 380.566 61.7821L380.834 62.8258C380.761 62.8568 380.657 62.8889 380.522 62.9222C380.386 62.9583 380.217 62.9814 380.012 62.9915C379.678 63.0092 379.363 62.9607 379.069 62.8461C378.775 62.7316 378.534 62.5469 378.346 62.292C378.158 62.0372 378.056 61.7125 378.042 61.3179L377.812 54.866ZM388.224 62.6131L385.401 62.7139L385.089 53.9922L388.002 53.8882C388.857 53.8577 389.597 54.0061 390.223 54.3334C390.848 54.6579 391.336 55.1394 391.686 55.7779C392.038 56.4134 392.231 57.184 392.263 58.0897C392.295 58.9982 392.157 59.7849 391.848 60.4497C391.542 61.1145 391.083 61.634 390.471 62.0084C389.859 62.3799 389.11 62.5815 388.224 62.6131ZM386.676 61.5171L388.111 61.4658C388.775 61.4421 389.323 61.2975 389.754 61.0319C390.185 60.7635 390.501 60.387 390.703 59.9022C390.904 59.4146 390.993 58.8258 390.968 58.1359C390.944 57.4517 390.814 56.875 390.578 56.4058C390.345 55.9366 390.01 55.5861 389.573 55.3544C389.135 55.1227 388.598 55.0182 387.962 55.0409L386.446 55.095L386.676 61.5171ZM396.777 62.4399C396.133 62.4629 395.573 62.3451 395.097 62.0863C394.625 61.8246 394.253 61.447 393.982 60.9535C393.714 60.457 393.568 59.8695 393.544 59.191C393.52 58.521 393.624 57.926 393.856 57.406C394.09 56.886 394.428 56.4745 394.869 56.1716C395.313 55.8687 395.839 55.7063 396.446 55.6846C396.816 55.6715 397.175 55.7197 397.526 55.8295C397.877 55.9392 398.195 56.1197 398.479 56.3711C398.764 56.6224 398.993 56.954 399.167 57.3656C399.341 57.7745 399.439 58.2756 399.46 58.8689L399.476 59.3204L394.276 59.506L394.242 58.5521L398.194 58.411C398.182 58.0759 398.103 57.7817 397.958 57.5282C397.812 57.2719 397.613 57.0729 397.361 56.9312C397.111 56.7895 396.822 56.7245 396.493 56.7362C396.135 56.749 395.826 56.8482 395.565 57.0337C395.307 57.2163 395.111 57.4508 394.976 57.737C394.844 58.0203 394.784 58.3252 394.796 58.6517L394.822 59.3969C394.838 59.8342 394.928 60.2034 395.092 60.5045C395.259 60.8056 395.485 61.032 395.769 61.1839C396.053 61.333 396.38 61.4009 396.752 61.3876C396.994 61.379 397.213 61.337 397.409 61.2618C397.605 61.1837 397.773 61.0726 397.913 60.9283C398.053 60.784 398.157 60.6083 398.227 60.4011L399.44 60.5753C399.356 60.9336 399.194 61.2507 398.953 61.5265C398.716 61.7993 398.412 62.0163 398.043 62.1773C397.676 62.3354 397.254 62.4229 396.777 62.4399ZM405.717 57.038L404.57 57.2836C404.517 57.1377 404.435 56.9999 404.325 56.8702C404.218 56.7404 404.075 56.6361 403.896 56.5572C403.717 56.4783 403.495 56.4436 403.231 56.453C402.871 56.4659 402.573 56.5575 402.337 56.728C402.102 56.8956 401.988 57.1057 401.997 57.3584C402.005 57.577 402.092 57.7502 402.259 57.8778C402.425 58.0055 402.691 58.1055 403.054 58.1778L404.102 58.3791C404.709 58.4968 405.165 58.6951 405.47 58.9742C405.776 59.2532 405.937 59.6241 405.954 60.0869C405.968 60.4787 405.867 60.8319 405.65 61.1467C405.437 61.4585 405.132 61.7081 404.735 61.8957C404.341 62.0832 403.88 62.1864 403.351 62.2052C402.619 62.2314 402.016 62.0966 401.542 61.8008C401.068 61.5022 400.768 61.0651 400.642 60.4897L401.866 60.2584C401.954 60.5765 402.121 60.8136 402.365 60.9697C402.609 61.1231 402.923 61.1929 403.306 61.1792C403.724 61.1643 404.054 61.0658 404.298 60.8837C404.541 60.6987 404.659 60.4799 404.65 60.2272C404.642 60.0228 404.56 59.8538 404.401 59.7202C404.246 59.5864 404.011 59.4896 403.696 59.4298L402.58 59.2266C401.965 59.1093 401.505 58.9039 401.202 58.6106C400.902 58.3171 400.743 57.9376 400.726 57.472C400.713 57.0859 400.808 56.7442 401.014 56.4469C401.219 56.1496 401.509 55.9132 401.884 55.7378C402.259 55.5596 402.691 55.4617 403.183 55.4442C403.89 55.4189 404.451 55.5524 404.868 55.8445C405.285 56.1338 405.568 56.5316 405.717 57.038ZM407.421 61.9277L407.188 55.3865L408.461 55.341L408.695 61.8823L407.421 61.9277ZM407.795 54.3542C407.573 54.3621 407.38 54.2951 407.216 54.1531C407.055 54.0082 406.97 53.8321 406.963 53.6249C406.955 53.4148 407.027 53.2331 407.178 53.0799C407.331 52.9238 407.519 52.8418 407.74 52.8339C407.962 52.8259 408.153 52.8944 408.315 53.0393C408.479 53.1813 408.565 53.3573 408.573 53.5674C408.58 53.7747 408.507 53.9564 408.353 54.1125C408.202 54.2657 408.016 54.3463 407.795 54.3542ZM413.243 64.3125C412.723 64.331 412.273 64.2788 411.894 64.1559C411.517 64.0329 411.207 63.8635 410.963 63.6476C410.72 63.4318 410.535 63.1925 410.409 62.9297L411.487 62.4392C411.568 62.5614 411.675 62.6898 411.808 62.8244C411.944 62.9616 412.124 63.076 412.349 63.1675C412.577 63.2588 412.867 63.2982 413.219 63.2857C413.701 63.2684 414.096 63.1364 414.403 62.8895C414.71 62.6454 414.854 62.2679 414.836 61.7568L414.79 60.4707L414.709 60.4736C414.637 60.6155 414.532 60.7742 414.393 60.9497C414.257 61.1251 414.067 61.2797 413.821 61.4136C413.576 61.5474 413.253 61.6215 412.853 61.6358C412.336 61.6542 411.866 61.5502 411.443 61.3236C411.023 61.0942 410.683 60.7467 410.425 60.2812C410.17 59.8127 410.029 59.2307 410.005 58.5351C409.98 57.8395 410.076 57.2391 410.294 56.7339C410.515 56.2285 410.828 55.8364 411.233 55.5576C411.638 55.2759 412.103 55.1257 412.628 55.1069C413.034 55.0924 413.365 55.1489 413.619 55.2762C413.874 55.4007 414.074 55.55 414.219 55.7239C414.368 55.8976 414.483 56.0513 414.564 56.1849L414.658 56.1815L414.62 55.1211L415.868 55.0766L416.107 61.7626C416.127 62.3248 416.013 62.7908 415.764 63.1607C415.516 63.5306 415.172 63.8101 414.732 63.9992C414.296 64.1882 413.799 64.2926 413.243 64.3125ZM413.096 60.5696C413.462 60.5565 413.769 60.4603 414.015 60.2809C414.265 60.0986 414.449 59.8447 414.568 59.5192C414.69 59.1908 414.743 58.8009 414.727 58.3495C414.711 57.9094 414.632 57.5242 414.489 57.1938C414.347 56.8635 414.146 56.6091 413.887 56.4308C413.627 56.2496 413.311 56.1656 412.939 56.1789C412.556 56.1926 412.24 56.3034 411.992 56.5112C411.743 56.7162 411.56 56.99 411.441 57.3325C411.326 57.6749 411.275 58.0548 411.29 58.4722C411.305 58.9009 411.384 59.2747 411.526 59.5937C411.668 59.9127 411.871 60.1585 412.133 60.3311C412.397 60.5036 412.719 60.5831 413.096 60.5696ZM418.944 57.6275L419.082 61.5114L417.809 61.5569L417.576 55.0156L418.798 54.972L418.836 56.0366L418.917 56.0337C419.055 55.682 419.281 55.3953 419.594 55.1738C419.91 54.9521 420.314 54.8326 420.805 54.815C421.251 54.7991 421.644 54.8789 421.986 55.0543C422.328 55.2269 422.597 55.493 422.795 55.8526C422.992 56.2123 423.101 56.6618 423.12 57.2013L423.269 61.362L421.995 61.4074L421.852 57.4C421.835 56.9259 421.699 56.5598 421.442 56.3018C421.185 56.0409 420.841 55.9181 420.41 55.9335C420.115 55.9441 419.854 56.0173 419.629 56.1533C419.406 56.2892 419.233 56.483 419.108 56.7347C418.986 56.9836 418.931 57.2812 418.944 57.6275ZM431.829 56.1356L431.868 57.2429L428.001 57.3809L427.962 56.2737L431.829 56.1356ZM441.505 54.2722C441.445 53.8706 441.246 53.565 440.909 53.3553C440.572 53.1428 440.153 53.0455 439.654 53.0633C439.296 53.0761 438.988 53.1439 438.731 53.2668C438.474 53.3868 438.276 53.5474 438.139 53.7485C438.004 53.9466 437.94 54.1691 437.949 54.4161C437.957 54.6234 438.011 54.8005 438.113 54.9476C438.218 55.0945 438.352 55.2162 438.514 55.3128C438.68 55.4063 438.856 55.4839 439.043 55.5455C439.23 55.6042 439.409 55.6518 439.581 55.6883L440.441 55.8793C440.721 55.9375 441.01 56.0196 441.306 56.1256C441.603 56.2315 441.88 56.3752 442.136 56.5565C442.393 56.7378 442.603 56.9662 442.766 57.2418C442.932 57.5173 443.023 57.851 443.036 58.2428C443.054 58.7368 442.942 59.18 442.7 59.5724C442.461 59.9647 442.104 60.2802 441.63 60.5188C441.158 60.7574 440.581 60.8889 439.9 60.9132C439.247 60.9365 438.678 60.8531 438.194 60.6628C437.709 60.4726 437.325 60.1921 437.042 59.8213C436.759 59.4476 436.593 58.9987 436.546 58.4745L437.866 58.4273C437.903 58.7416 438.015 59.0005 438.201 59.2042C438.39 59.405 438.627 59.5515 438.912 59.6437C439.199 59.7329 439.512 59.7715 439.85 59.7594C440.222 59.7461 440.551 59.6761 440.836 59.5494C441.124 59.4197 441.348 59.2468 441.508 59.0307C441.668 58.8118 441.743 58.5604 441.733 58.2765C441.724 58.0182 441.642 57.8093 441.489 57.6499C441.338 57.4904 441.136 57.3611 440.882 57.2622C440.631 57.1631 440.348 57.078 440.033 57.0068L438.992 56.7625C438.287 56.5972 437.724 56.3374 437.302 55.9829C436.882 55.6283 436.662 55.1472 436.64 54.5396C436.622 54.0371 436.743 53.5936 437.002 53.2091C437.261 52.8246 437.62 52.5204 438.078 52.2966C438.536 52.0698 439.058 51.946 439.643 51.9252C440.233 51.9041 440.758 51.9891 441.217 52.1802C441.678 52.3713 442.046 52.6438 442.32 52.9979C442.595 53.3492 442.746 53.7588 442.774 54.2269L441.505 54.2722ZM447.417 60.632C446.772 60.655 446.212 60.5372 445.737 60.2784C445.264 60.0167 444.893 59.6391 444.622 59.1456C444.354 58.6491 444.208 58.0616 444.184 57.3831C444.16 56.7131 444.264 56.1181 444.495 55.5981C444.73 55.0781 445.068 54.6666 445.509 54.3637C445.953 54.0608 446.478 53.8984 447.086 53.8768C447.455 53.8636 447.815 53.9118 448.166 54.0216C448.517 54.1313 448.834 54.3118 449.119 54.5632C449.404 54.8145 449.633 55.1461 449.807 55.5577C449.981 55.9666 450.078 56.4677 450.099 57.061L450.115 57.5125L444.916 57.6981L444.882 56.7442L448.834 56.6031C448.822 56.2681 448.743 55.9738 448.597 55.7203C448.452 55.464 448.253 55.265 448 55.1233C447.751 54.9816 447.461 54.9166 447.132 54.9283C446.774 54.9411 446.465 55.0403 446.205 55.2258C445.947 55.4084 445.75 55.6429 445.616 55.9291C445.484 56.2124 445.424 56.5173 445.435 56.8438L445.462 57.5891C445.477 58.0263 445.567 58.3955 445.732 58.6966C445.899 58.9977 446.124 59.2241 446.408 59.376C446.692 59.5251 447.02 59.593 447.392 59.5797C447.633 59.5711 447.852 59.5292 448.048 59.4539C448.245 59.3758 448.413 59.2647 448.552 59.1204C448.692 58.9761 448.797 58.8004 448.866 58.5932L450.079 58.7674C449.995 59.1257 449.833 59.4428 449.593 59.7186C449.355 59.9914 449.052 60.2084 448.682 60.3694C448.316 60.5275 447.894 60.615 447.417 60.632ZM453.54 60.4262C453.126 60.441 452.748 60.3777 452.408 60.2364C452.067 60.0922 451.794 59.876 451.587 59.5877C451.383 59.2993 451.274 58.9408 451.259 58.5121C451.246 58.143 451.306 57.8367 451.439 57.5931C451.573 57.3496 451.757 57.1539 451.994 57.0062C452.23 56.8585 452.496 56.7438 452.792 56.6622C453.087 56.5806 453.389 56.5158 453.697 56.4678C454.087 56.4084 454.404 56.3601 454.647 56.323C454.89 56.2831 455.066 56.2271 455.174 56.155C455.283 56.0829 455.334 55.9702 455.329 55.8169L455.327 55.7871C455.314 55.4151 455.199 55.1307 454.981 54.9338C454.767 54.7368 454.454 54.6456 454.042 54.6603C453.613 54.6756 453.279 54.7828 453.039 54.9818C452.801 55.1779 452.64 55.3926 452.554 55.6259L451.348 55.3961C451.476 54.9936 451.671 54.6654 451.935 54.4115C452.202 54.1546 452.512 53.9645 452.866 53.841C453.219 53.7146 453.594 53.6444 453.988 53.6303C454.249 53.621 454.527 53.6424 454.822 53.6944C455.119 53.7435 455.399 53.8443 455.66 53.9971C455.924 54.1497 456.144 54.3735 456.319 54.6686C456.495 54.9608 456.591 55.3454 456.608 55.8224L456.763 60.1662L455.519 60.2106L455.488 59.3163L455.436 59.3181C455.36 59.4857 455.242 59.6519 455.083 59.8168C454.924 59.9817 454.717 60.1212 454.463 60.2355C454.208 60.3498 453.901 60.4133 453.54 60.4262ZM453.78 59.3943C454.132 59.3817 454.431 59.3014 454.676 59.1534C454.924 59.0052 455.109 58.8167 455.231 58.5877C455.357 58.3558 455.415 58.1107 455.405 57.8523L455.375 57.0091C455.332 57.0562 455.245 57.1019 455.116 57.1463C454.989 57.1878 454.844 57.2257 454.681 57.2599C454.517 57.2914 454.357 57.3212 454.202 57.3495C454.047 57.375 453.917 57.3967 453.812 57.4146C453.566 57.4546 453.342 57.5152 453.141 57.5963C452.942 57.6774 452.784 57.7896 452.667 57.9331C452.552 58.0736 452.499 58.2574 452.507 58.4846C452.518 58.7997 452.643 59.034 452.882 59.1876C453.12 59.3382 453.42 59.4071 453.78 59.3943ZM458.459 60.1056L458.225 53.5643L459.456 53.5204L459.493 54.5595L459.561 54.5571C459.668 54.2008 459.868 53.9165 460.162 53.7041C460.459 53.4889 460.798 53.3744 461.182 53.3607C461.261 53.3579 461.355 53.3574 461.463 53.3592C461.574 53.3609 461.661 53.3649 461.724 53.3712L461.767 54.5892C461.716 54.5768 461.624 54.5645 461.493 54.5521C461.362 54.5369 461.231 54.5316 461.1 54.5363C460.799 54.547 460.533 54.6205 460.302 54.7566C460.074 54.8899 459.895 55.0711 459.767 55.3002C459.639 55.5265 459.58 55.7816 459.59 56.0656L459.732 60.0602L458.459 60.1056ZM465.587 59.9833C464.954 60.0059 464.404 59.882 463.937 59.6116C463.472 59.3382 463.109 58.9518 462.846 58.4523C462.584 57.9528 462.441 57.3752 462.418 56.7193C462.394 56.055 462.498 55.4642 462.73 54.9471C462.961 54.4272 463.299 54.0157 463.743 53.7127C464.187 53.4098 464.717 53.2473 465.333 53.2253C465.83 53.2076 466.276 53.284 466.672 53.4547C467.067 53.6225 467.39 53.8668 467.64 54.1876C467.894 54.5084 468.051 54.8879 468.112 55.3264L466.872 55.3706C466.793 55.0664 466.628 54.808 466.376 54.5952C466.127 54.3824 465.799 54.2832 465.393 54.2977C465.038 54.3104 464.731 54.4152 464.47 54.6121C464.213 54.8061 464.016 55.0774 463.881 55.4262C463.746 55.7722 463.686 56.178 463.703 56.6436C463.72 57.1206 463.807 57.5297 463.964 57.8709C464.121 58.2121 464.335 58.4731 464.606 58.6539C464.88 58.8345 465.197 58.9185 465.557 58.9056C465.799 58.897 466.016 58.8452 466.209 58.7501C466.404 58.6522 466.566 58.5171 466.693 58.3448C466.823 58.1725 466.911 57.9675 466.957 57.7299L468.196 57.6857C468.166 58.1103 468.041 58.4928 467.823 58.8332C467.605 59.1736 467.307 59.4458 466.927 59.6498C466.551 59.8537 466.104 59.9649 465.587 59.9833ZM470.766 55.7774L470.905 59.6613L469.632 59.7068L469.32 50.985L470.577 50.9402L470.692 54.1853L470.773 54.1824C470.914 53.8249 471.138 53.5369 471.446 53.3183C471.754 53.0998 472.162 52.9815 472.67 52.9634C473.118 52.9474 473.514 53.0256 473.855 53.1982C474.2 53.3707 474.471 53.6368 474.668 53.9964C474.869 54.3531 474.979 54.8041 474.998 55.3492L475.147 59.5099L473.873 59.5553L473.73 55.5479C473.713 55.0681 473.576 54.7006 473.32 54.4454C473.063 54.1873 472.715 54.0662 472.275 54.0819C471.974 54.0926 471.707 54.1661 471.473 54.3024C471.242 54.4386 471.062 54.6326 470.935 54.8845C470.81 55.1334 470.754 55.431 470.766 55.7774Z" fill="url(#paint2_linear_0_1)"/>
<path d="M488.501 50.757L485.775 53.6841L482.848 50.9588L481.939 51.9345L484.866 54.6598L482.141 57.5869L483.117 58.4953L485.842 55.5682L488.77 58.2935L489.678 57.3178L486.751 54.5925L489.476 51.6654L488.501 50.757Z" fill="white"/>
</g>
<g filter="url(#filter2_d_0_1)">
<rect width="207" height="50" transform="translate(133.952 56) rotate(2.23739)" fill="#181818"/>
<path d="M148.464 81.5861L150.716 75.1691L155.252 74.3456L161.747 74.5993C162.147 74.6149 163.834 76.6824 164.628 77.7141L165.432 82.7494L162.219 88.1281L157.086 91.4302L153.57 91.7932L152.09 91.235L151.63 90.2162L149.268 86.6213L148.464 81.5861Z" fill="white"/>
<path d="M158.795 71.5799C156.299 71.1365 153.726 71.6114 151.552 72.9169C149.379 74.2224 147.751 76.2703 146.969 78.6825C146.187 81.0946 146.305 83.7081 147.3 86.0404C148.295 88.3726 150.1 90.2661 152.382 91.3712C152.351 90.5629 152.44 89.7544 152.647 88.9725C152.876 88.0999 154.231 83.2947 154.231 83.2947C154.019 82.7654 153.925 82.1964 153.955 81.6271C154.016 80.0693 154.961 78.9421 156.079 78.9858C156.28 78.9907 156.478 79.0389 156.658 79.127C156.839 79.2151 156.999 79.3411 157.126 79.4964C157.254 79.6517 157.347 79.8327 157.398 80.027C157.45 80.2214 157.459 80.4246 157.425 80.6227C157.388 81.5669 156.726 82.9719 156.357 84.3002C156.285 84.5437 156.271 84.8006 156.316 85.0505C156.361 85.3003 156.464 85.536 156.618 85.7386C156.771 85.9412 156.969 86.1049 157.197 86.2167C157.425 86.3285 157.676 86.3851 157.93 86.3821C159.921 86.4599 161.355 83.9618 161.473 80.9511C161.563 78.6432 160.102 76.8547 157.284 76.7446C156.611 76.6921 155.935 76.7769 155.295 76.9939C154.656 77.2109 154.067 77.5556 153.565 78.007C153.063 78.4585 152.658 79.0072 152.375 79.62C152.091 80.2327 151.935 80.8967 151.916 81.5716C151.857 82.3187 152.07 83.0621 152.515 83.6648C152.6 83.7335 152.661 83.828 152.687 83.934C152.714 84.0401 152.705 84.1519 152.662 84.2526C152.607 84.4437 152.467 84.8995 152.412 85.0665C152.4 85.1234 152.374 85.1766 152.338 85.2218C152.301 85.267 152.254 85.3031 152.201 85.327C152.148 85.3508 152.09 85.3619 152.032 85.3593C151.974 85.3568 151.917 85.3405 151.867 85.312C150.438 84.6741 149.816 83.0497 149.887 81.2255C150.004 78.2389 152.645 74.7615 157.648 74.957C161.631 75.1126 164.165 78.1292 164.043 81.2448C163.883 85.3455 161.478 88.3393 158.104 88.2075C157.599 88.2039 157.103 88.073 156.662 87.827C156.221 87.581 155.849 87.2277 155.58 86.7998C155.58 86.7998 154.879 89.2057 154.742 89.6605C154.466 90.4448 154.077 91.184 153.585 91.8542C154.542 92.1858 155.542 92.3719 156.554 92.4073C157.932 92.4622 159.307 92.2448 160.601 91.7675C161.895 91.2902 163.082 90.5624 164.094 89.6257C165.106 88.689 165.923 87.5619 166.499 86.3089C167.075 85.0559 167.398 83.7015 167.45 82.3235C167.548 79.79 166.725 77.3068 165.135 75.3322C163.545 73.3577 161.293 72.0253 158.797 71.581L158.795 71.5799Z" fill="#BB0F23"/>
<path d="M173.728 87.0766L174.069 78.356L177.177 78.4774C177.855 78.504 178.413 78.6494 178.849 78.9138C179.285 79.1782 179.605 79.529 179.81 79.9663C180.015 80.4008 180.107 80.8848 180.086 81.4185C180.065 81.9551 179.934 82.4333 179.693 82.8531C179.455 83.2703 179.107 83.595 178.648 83.8273C178.193 84.0569 177.627 84.1585 176.952 84.1321L174.814 84.0485L174.858 82.9329L176.876 83.0118C177.305 83.0285 177.655 82.9683 177.928 82.8311C178.201 82.6911 178.405 82.4943 178.54 82.2409C178.675 81.9875 178.749 81.6961 178.761 81.3668C178.774 81.0375 178.723 80.7427 178.608 80.4823C178.493 80.2219 178.304 80.0141 178.04 79.8588C177.779 79.7036 177.43 79.6174 176.992 79.6004L175.34 79.5358L175.044 87.128L173.728 87.0766ZM183.964 87.6087C183.35 87.5848 182.821 87.4233 182.375 87.1245C181.929 86.8256 181.589 86.4185 181.356 85.9034C181.123 85.3882 181.02 84.7928 181.046 84.1172C181.073 83.4387 181.222 82.8504 181.495 82.3521C181.767 81.8538 182.138 81.4731 182.606 81.2099C183.074 80.9468 183.614 80.8271 184.228 80.8511C184.841 80.8751 185.37 81.0365 185.816 81.3354C186.262 81.6343 186.602 82.0427 186.835 82.5607C187.067 83.0787 187.171 83.677 187.144 84.3554C187.118 85.031 186.968 85.6166 186.696 86.112C186.424 86.6074 186.053 86.9867 185.585 87.2499C185.117 87.5131 184.577 87.6327 183.964 87.6087ZM184.01 86.5401C184.407 86.5556 184.74 86.4635 185.01 86.2636C185.279 86.0637 185.483 85.7917 185.622 85.4474C185.763 85.1032 185.842 84.7211 185.858 84.3009C185.875 83.8836 185.826 83.4979 185.712 83.1437C185.6 82.7869 185.418 82.4969 185.166 82.2738C184.913 82.0506 184.588 81.9313 184.19 81.9158C183.79 81.9002 183.454 81.9936 183.181 82.1962C182.912 82.3989 182.706 82.6738 182.565 83.0208C182.426 83.3651 182.349 83.7459 182.333 84.1632C182.316 84.5833 182.364 84.9704 182.475 85.3244C182.589 85.6786 182.772 85.9658 183.025 86.1861C183.281 86.4065 183.609 86.5245 184.01 86.5401ZM188.343 90.104L188.694 81.1109L189.938 81.1595L189.896 82.2198L190.003 82.2239C190.082 82.0905 190.194 81.9371 190.34 81.7637C190.486 81.5903 190.686 81.4417 190.938 81.318C191.19 81.1914 191.519 81.136 191.925 81.1518C192.453 81.1725 192.919 81.3243 193.323 81.6073C193.727 81.8904 194.037 82.2877 194.253 82.7994C194.472 83.3112 194.568 83.9205 194.54 84.6273C194.512 85.3342 194.371 85.9356 194.116 86.4317C193.86 86.925 193.522 87.2998 193.099 87.5563C192.677 87.8099 192.202 87.9263 191.674 87.9057C191.277 87.8902 190.954 87.8108 190.707 87.6675C190.462 87.5243 190.272 87.3605 190.137 87.1761C190.002 86.9917 189.899 86.8285 189.828 86.6864L189.752 86.6834L189.616 90.1538L188.343 90.104ZM189.814 84.4299C189.796 84.8898 189.847 85.2955 189.967 85.647C190.087 85.9985 190.269 86.2772 190.514 86.4829C190.759 86.6858 191.065 86.7944 191.431 86.8087C191.812 86.8236 192.133 86.7353 192.397 86.5437C192.66 86.3493 192.864 86.08 193.008 85.736C193.155 85.392 193.237 85.0015 193.255 84.5643C193.271 84.1328 193.221 83.7428 193.104 83.3942C192.99 83.0457 192.807 82.7671 192.557 82.5583C192.309 82.3496 191.994 82.2377 191.61 82.2228C191.241 82.2083 190.925 82.2912 190.662 82.4715C190.402 82.6518 190.2 82.9097 190.056 83.2453C189.913 83.5808 189.832 83.9757 189.814 84.4299ZM200.088 85.39L200.238 81.5619L201.515 81.6118L201.26 88.1523L200.008 88.1034L200.052 86.9707L199.984 86.9681C199.82 87.3113 199.567 87.5929 199.226 87.8127C198.888 88.0298 198.473 88.1287 197.982 88.1095C197.562 88.0931 197.194 87.9863 196.877 87.7892C196.564 87.5893 196.322 87.3026 196.152 86.9292C195.984 86.5559 195.911 86.0996 195.932 85.5602L196.095 81.4L197.368 81.4498L197.211 85.4567C197.194 85.9024 197.304 86.262 197.54 86.5357C197.777 86.8093 198.093 86.9539 198.487 86.9693C198.726 86.9786 198.965 86.9282 199.205 86.8182C199.448 86.7083 199.653 86.5358 199.818 86.3006C199.987 86.0655 200.077 85.7619 200.088 85.39ZM204.584 79.5482L204.244 88.2689L202.97 88.2191L203.311 79.4985L204.584 79.5482ZM207.854 88.5549C207.44 88.5387 207.068 88.4474 206.739 88.2811C206.41 88.1119 206.154 87.8758 205.969 87.5729C205.788 87.2701 205.705 86.9044 205.722 86.4758C205.737 86.1067 205.819 85.8058 205.971 85.5729C206.122 85.34 206.321 85.1587 206.568 85.029C206.814 84.8993 207.088 84.8048 207.389 84.7455C207.69 84.6862 207.996 84.6441 208.307 84.6193C208.7 84.5892 209.019 84.5647 209.265 84.5459C209.51 84.5242 209.689 84.4814 209.803 84.4176C209.916 84.3538 209.976 84.2453 209.982 84.092L209.983 84.0622C209.997 83.6903 209.904 83.3981 209.702 83.1855C209.502 82.973 209.197 82.8587 208.785 82.8426C208.357 82.8259 208.015 82.9078 207.761 83.0883C207.509 83.2661 207.332 83.4682 207.23 83.6944L206.044 83.3752C206.201 82.9833 206.421 82.6706 206.703 82.4371C206.988 82.2009 207.311 82.0344 207.673 81.9377C208.036 81.8381 208.414 81.7961 208.809 81.8115C209.07 81.8217 209.345 81.8637 209.635 81.9376C209.928 82.0087 210.199 82.1302 210.448 82.302C210.7 82.4739 210.903 82.7135 211.056 83.0209C211.209 83.3254 211.276 83.7161 211.257 84.193L211.088 88.5363L209.844 88.4877L209.879 87.5935L209.828 87.5915C209.739 87.7529 209.609 87.9099 209.439 88.0624C209.268 88.215 209.051 88.3387 208.789 88.4336C208.526 88.5286 208.215 88.569 207.854 88.5549ZM208.171 87.5438C208.523 87.5575 208.827 87.4998 209.082 87.3704C209.34 87.2412 209.539 87.067 209.678 86.8478C209.82 86.6259 209.896 86.3858 209.907 86.1275L209.939 85.2844C209.892 85.3281 209.803 85.3672 209.67 85.4018C209.541 85.4338 209.394 85.4607 209.228 85.4826C209.062 85.5018 208.901 85.5196 208.744 85.5362C208.587 85.55 208.456 85.5619 208.35 85.572C208.102 85.5936 207.874 85.6373 207.667 85.7031C207.463 85.7691 207.297 85.8692 207.169 86.0035C207.045 86.1351 206.978 86.3145 206.969 86.5416C206.957 86.8567 207.064 87.0997 207.29 87.2706C207.517 87.4386 207.81 87.5297 208.171 87.5438ZM212.783 88.6025L213.039 82.062L214.269 82.1101L214.229 83.1491L214.297 83.1518C214.43 82.8044 214.651 82.5358 214.96 82.3461C215.271 82.1535 215.619 82.0648 216.002 82.0797C216.082 82.0828 216.175 82.0893 216.283 82.0992C216.393 82.1092 216.48 82.1197 216.542 82.1307L216.494 83.3485C216.444 83.3323 216.353 83.3131 216.223 83.291C216.094 83.266 215.963 83.251 215.833 83.2459C215.532 83.2341 215.261 83.2875 215.021 83.4061C214.783 83.5219 214.592 83.6892 214.447 83.9082C214.302 84.1243 214.224 84.3743 214.213 84.6581L214.057 88.6523L212.783 88.6025ZM223.484 89.0206L220.661 88.9103L221.002 80.1897L223.914 80.3035C224.769 80.3368 225.496 80.5401 226.095 80.9132C226.695 81.2835 227.145 81.8 227.446 82.4629C227.75 83.123 227.884 83.9058 227.849 84.8114C227.814 85.7198 227.617 86.4939 227.259 87.1339C226.905 87.7739 226.408 88.2577 225.77 88.5853C225.132 88.9101 224.37 89.0552 223.484 89.0206ZM222.022 87.812L223.456 87.8681C224.121 87.894 224.678 87.7907 225.128 87.5581C225.577 87.3226 225.921 86.9707 226.158 86.5023C226.396 86.0311 226.528 85.4506 226.555 84.7608C226.581 84.0767 226.495 83.4919 226.295 83.0064C226.098 82.5211 225.79 82.1465 225.371 81.8828C224.952 81.6191 224.424 81.4748 223.788 81.45L222.272 81.3908L222.022 87.812ZM232.026 89.4865C231.382 89.4613 230.832 89.302 230.377 89.0084C229.925 88.7122 229.583 88.3079 229.35 87.7955C229.12 87.2805 229.018 86.6837 229.044 86.0053C229.071 85.3353 229.219 84.7497 229.488 84.2485C229.761 83.7474 230.129 83.3623 230.591 83.0932C231.057 82.8243 231.593 82.7017 232.201 82.7254C232.57 82.7398 232.925 82.8148 233.266 82.9504C233.608 83.086 233.911 83.2898 234.176 83.5617C234.442 83.8336 234.646 84.1813 234.788 84.6048C234.931 85.0255 234.991 85.5325 234.968 86.1258L234.95 86.5771L229.751 86.374L229.788 85.4202L233.74 85.5746C233.753 85.2396 233.696 84.9403 233.57 84.6767C233.444 84.4102 233.26 84.1969 233.019 84.0368C232.781 83.8768 232.497 83.7903 232.168 83.7775C231.81 83.7635 231.495 83.8393 231.221 84.0049C230.95 84.1677 230.737 84.3868 230.581 84.6622C230.428 84.9349 230.345 85.2344 230.333 85.5609L230.304 86.3061C230.287 86.7432 230.349 87.1181 230.49 87.4307C230.634 87.7433 230.842 87.986 231.114 88.1587C231.386 88.3285 231.708 88.4207 232.08 88.4353C232.321 88.4447 232.542 88.4192 232.744 88.3589C232.945 88.2956 233.121 88.1973 233.271 88.0639C233.422 87.9304 233.539 87.763 233.624 87.5616L234.82 87.8259C234.71 88.1769 234.524 88.481 234.264 88.7381C234.007 88.9925 233.688 89.1861 233.308 89.3191C232.93 89.4493 232.503 89.5051 232.026 89.4865ZM241.344 84.7672L240.182 84.9265C240.14 84.777 240.068 84.6334 239.969 84.4959C239.872 84.3585 239.737 84.2438 239.564 84.1517C239.391 84.0597 239.173 84.0085 238.909 83.9982C238.549 83.9841 238.245 84.0533 237.997 84.2057C237.749 84.3552 237.621 84.5563 237.611 84.8089C237.602 85.0275 237.676 85.2067 237.833 85.3464C237.99 85.4862 238.246 85.6057 238.604 85.7049L239.633 85.984C240.23 86.1466 240.67 86.3784 240.954 86.6795C241.238 86.9806 241.371 87.3625 241.352 87.8252C241.337 88.217 241.21 88.5617 240.971 88.8594C240.735 89.1544 240.412 89.3806 240.002 89.538C239.595 89.6955 239.127 89.764 238.599 89.7433C237.867 89.7147 237.276 89.5352 236.825 89.2049C236.375 88.8717 236.108 88.4135 236.026 87.8303L237.264 87.691C237.328 88.0148 237.476 88.2637 237.708 88.4377C237.94 88.6088 238.248 88.7018 238.631 88.7168C239.048 88.7331 239.385 88.6596 239.642 88.4962C239.898 88.3299 240.032 88.1205 240.042 87.8678C240.05 87.6634 239.98 87.4887 239.832 87.3436C239.687 87.1986 239.46 87.0845 239.15 87.0014L238.052 86.7154C237.448 86.5525 237.005 86.3134 236.724 85.9982C236.447 85.6832 236.317 85.2929 236.335 84.8273C236.35 84.4413 236.471 84.1077 236.698 83.8265C236.925 83.5454 237.232 83.3314 237.619 83.1844C238.006 83.0346 238.445 82.9694 238.936 82.9885C239.643 83.0162 240.193 83.1912 240.587 83.5136C240.981 83.8332 241.233 84.2511 241.344 84.7672ZM242.678 89.7705L242.934 83.23L244.207 83.2798L243.952 89.8202L242.678 89.7705ZM243.616 82.246C243.395 82.2373 243.208 82.1561 243.054 82.0023C242.904 81.8457 242.833 81.6638 242.841 81.4566C242.849 81.2465 242.935 81.0707 243.096 80.9292C243.261 80.785 243.454 80.7172 243.676 80.7258C243.897 80.7345 244.083 80.8171 244.233 80.9736C244.387 81.1275 244.459 81.3094 244.451 81.5195C244.443 81.7267 244.356 81.9024 244.191 82.0467C244.03 82.1882 243.838 82.2546 243.616 82.246ZM248.306 92.5832C247.786 92.5629 247.342 92.4773 246.972 92.3264C246.606 92.1757 246.309 91.9835 246.082 91.7501C245.855 91.5166 245.689 91.2642 245.583 90.9928L246.695 90.5842C246.767 90.7121 246.864 90.8481 246.986 90.9922C247.111 91.1392 247.282 91.2667 247.5 91.3747C247.72 91.4828 248.006 91.5438 248.358 91.5575C248.841 91.5764 249.244 91.4742 249.569 91.2509C249.893 91.0304 250.065 90.6647 250.085 90.1537L250.135 88.8677L250.054 88.8646C249.972 89.0007 249.856 89.1511 249.704 89.3157C249.555 89.4805 249.354 89.6205 249.099 89.7356C248.844 89.8508 248.517 89.9005 248.117 89.8849C247.6 89.8647 247.139 89.7259 246.734 89.4684C246.332 89.2082 246.02 88.8363 245.797 88.3528C245.577 87.8666 245.481 87.2757 245.508 86.5802C245.535 85.8847 245.676 85.2932 245.931 84.8056C246.189 84.3182 246.53 83.9505 246.955 83.7027C247.38 83.4521 247.855 83.337 248.38 83.3575C248.786 83.3734 249.111 83.4543 249.356 83.6004C249.601 83.7435 249.789 83.9073 249.921 84.0915C250.056 84.2759 250.159 84.4377 250.23 84.577L250.324 84.5807L250.365 83.5204L251.613 83.5691L251.352 90.2544C251.33 90.8164 251.181 91.2726 250.906 91.623C250.631 91.9733 250.267 92.2263 249.815 92.3821C249.365 92.5379 248.862 92.605 248.306 92.5832ZM248.439 88.8399C248.805 88.8542 249.118 88.7811 249.377 88.6206C249.64 88.4575 249.842 88.218 249.985 87.9024C250.131 87.5839 250.213 87.1991 250.231 86.7477C250.248 86.3077 250.198 85.9177 250.08 85.5776C249.963 85.2375 249.782 84.9689 249.536 84.7716C249.291 84.5716 248.982 84.4643 248.611 84.4497C248.227 84.4348 247.904 84.5216 247.641 84.7104C247.378 84.8963 247.174 85.1556 247.03 85.4883C246.89 85.8211 246.811 86.1962 246.795 86.6134C246.778 87.0421 246.828 87.4208 246.946 87.7495C247.064 88.0782 247.247 88.3384 247.496 88.5301C247.747 88.7218 248.061 88.8251 248.439 88.8399ZM254.49 86.3426L254.338 90.226L253.065 90.1763L253.321 83.6358L254.543 83.6836L254.501 84.7481L254.582 84.7513C254.746 84.4108 254.992 84.1418 255.321 83.9443C255.653 83.7469 256.065 83.6578 256.556 83.6769C257.002 83.6944 257.388 83.8033 257.716 84.0037C258.044 84.2013 258.293 84.4868 258.463 84.8603C258.633 85.2337 258.708 85.69 258.687 86.2294L258.524 90.3896L257.251 90.3398L257.407 86.333C257.426 85.8589 257.317 85.4836 257.08 85.2071C256.844 84.9278 256.51 84.7797 256.078 84.7628C255.783 84.7513 255.518 84.8049 255.283 84.9237C255.051 85.0425 254.864 85.2229 254.72 85.4646C254.58 85.7036 254.504 85.9963 254.49 86.3426ZM267.45 85.817L267.407 86.9241L263.541 86.773L263.584 85.6659L267.45 85.817ZM277.238 84.6812C277.209 84.2763 277.034 83.9567 276.713 83.7224C276.392 83.4853 275.982 83.357 275.483 83.3375C275.125 83.3235 274.813 83.3682 274.548 83.4715C274.282 83.572 274.073 83.7174 273.921 83.9076C273.771 84.0951 273.692 84.3123 273.682 84.5593C273.674 84.7665 273.715 84.9473 273.806 85.1015C273.899 85.2558 274.024 85.3872 274.179 85.4956C274.337 85.6013 274.507 85.6918 274.688 85.7671C274.87 85.8396 275.046 85.9005 275.214 85.9497L276.057 86.2044C276.333 86.2834 276.615 86.3868 276.902 86.5146C277.19 86.6424 277.455 86.8063 277.698 87.0063C277.94 87.2062 278.132 87.4497 278.275 87.7368C278.42 88.0239 278.485 88.3633 278.469 88.7551C278.45 89.249 278.305 89.6826 278.035 90.0559C277.767 90.4292 277.388 90.7172 276.897 90.9198C276.408 91.1224 275.823 91.2105 275.142 91.1838C274.489 91.1583 273.928 91.0326 273.459 90.8068C272.991 90.5809 272.629 90.2725 272.374 89.8816C272.119 89.4878 271.988 89.0278 271.98 88.5015L273.3 88.5531C273.313 88.8692 273.405 89.1358 273.576 89.3528C273.75 89.5672 273.975 89.7309 274.252 89.8441C274.532 89.9545 274.841 90.0164 275.179 90.0296C275.55 90.0441 275.883 89.9988 276.178 89.8937C276.475 89.7859 276.711 89.6303 276.887 89.4268C277.062 89.2204 277.156 88.9753 277.167 88.6914C277.177 88.4331 277.112 88.2187 276.97 88.0483C276.832 87.878 276.64 87.734 276.394 87.6164C276.152 87.4989 275.876 87.3928 275.567 87.2983L274.547 86.977C273.856 86.7595 273.314 86.4583 272.919 86.0733C272.528 85.6884 272.344 85.1922 272.368 84.5847C272.387 84.0823 272.541 83.649 272.828 83.2849C273.115 82.9209 273.495 82.6443 273.969 82.4553C274.443 82.2634 274.972 82.1789 275.557 82.2017C276.147 82.2248 276.664 82.3488 277.108 82.5736C277.554 82.7986 277.9 83.0979 278.147 83.4714C278.394 83.8421 278.514 84.2619 278.507 84.7308L277.238 84.6812ZM282.659 91.4647C282.015 91.4396 281.465 91.2802 281.01 90.9867C280.559 90.6904 280.216 90.2861 279.983 89.7738C279.753 89.2587 279.651 88.6619 279.678 87.9835C279.704 87.3135 279.852 86.728 280.122 86.2267C280.394 85.7256 280.762 85.3405 281.224 85.0715C281.69 84.8025 282.226 84.6799 282.834 84.7036C283.203 84.718 283.558 84.793 283.9 84.9286C284.241 85.0642 284.545 85.268 284.81 85.5399C285.075 85.8118 285.279 86.1596 285.421 86.5831C285.564 87.0037 285.624 87.5107 285.601 88.104L285.583 88.5554L280.384 88.3522L280.421 87.3984L284.373 87.5528C284.386 87.2178 284.329 86.9185 284.203 86.6549C284.077 86.3884 283.894 86.1751 283.653 86.015C283.414 85.855 283.13 85.7686 282.801 85.7557C282.443 85.7417 282.128 85.8175 281.854 85.9831C281.583 86.146 281.37 86.3651 281.214 86.6405C281.061 86.9131 280.979 87.2127 280.966 87.5391L280.937 88.2843C280.92 88.7214 280.982 89.0963 281.123 89.4089C281.267 89.7216 281.475 89.9643 281.747 90.1369C282.019 90.3068 282.341 90.399 282.713 90.4135C282.954 90.4229 283.176 90.3974 283.377 90.3371C283.579 90.2739 283.754 90.1755 283.905 90.0421C284.055 89.9087 284.172 89.7412 284.257 89.5399L285.453 89.8041C285.343 90.1552 285.158 90.4592 284.897 90.7163C284.64 90.9707 284.321 91.1643 283.941 91.2973C283.563 91.4276 283.136 91.4834 282.659 91.4647ZM288.781 91.7167C288.366 91.7005 287.995 91.6092 287.666 91.4428C287.337 91.2736 287.08 91.0376 286.896 90.7347C286.714 90.4319 286.632 90.0662 286.649 89.6376C286.663 89.2685 286.746 88.9676 286.897 88.7346C287.048 88.5017 287.247 88.3204 287.494 88.1908C287.741 88.0611 288.015 87.9666 288.315 87.9073C288.616 87.848 288.922 87.8059 289.233 87.7811C289.627 87.751 289.946 87.7265 290.191 87.7076C290.437 87.6859 290.616 87.6432 290.729 87.5794C290.843 87.5156 290.902 87.407 290.908 87.2537L290.909 87.2239C290.924 86.8521 290.83 86.5598 290.628 86.3472C290.429 86.1347 290.123 86.0205 289.712 86.0044C289.283 85.9876 288.942 86.0695 288.687 86.2501C288.436 86.4279 288.259 86.6299 288.156 86.8562L286.97 86.537C287.128 86.1451 287.347 85.8324 287.63 85.5989C287.915 85.3627 288.238 85.1962 288.6 85.0995C288.962 84.9999 289.341 84.9578 289.735 84.9733C289.996 84.9835 290.272 85.0255 290.562 85.0994C290.855 85.1705 291.126 85.292 291.375 85.4638C291.627 85.6357 291.829 85.8753 291.982 86.1826C292.135 86.4871 292.202 86.8778 292.184 87.3548L292.014 91.698L290.771 91.6495L290.806 90.7553L290.755 90.7533C290.666 90.9147 290.536 91.0717 290.365 91.2242C290.194 91.3767 289.978 91.5005 289.715 91.5954C289.453 91.6904 289.141 91.7308 288.781 91.7167ZM289.097 90.7056C289.449 90.7193 289.753 90.6615 290.008 90.5322C290.266 90.403 290.465 90.2288 290.604 90.0096C290.747 89.7877 290.823 89.5476 290.833 89.2893L290.866 88.4462C290.819 88.4898 290.729 88.529 290.597 88.5636C290.468 88.5955 290.32 88.6225 290.155 88.6444C289.989 88.6635 289.828 88.6814 289.671 88.698C289.514 88.7118 289.382 88.7237 289.277 88.7338C289.029 88.7554 288.801 88.7991 288.594 88.8649C288.389 88.9308 288.223 89.031 288.096 89.1653C287.971 89.2969 287.904 89.4762 287.896 89.7033C287.883 90.0184 287.99 90.2614 288.217 90.4323C288.443 90.6004 288.737 90.6915 289.097 90.7056ZM293.71 91.7643L293.965 85.2238L295.196 85.2719L295.155 86.3109L295.224 86.3135C295.357 85.9662 295.577 85.6976 295.886 85.5078C296.198 85.3153 296.545 85.2265 296.929 85.2415C297.008 85.2446 297.102 85.2511 297.209 85.261C297.32 85.271 297.406 85.2815 297.468 85.2924L297.421 86.5103C297.37 86.4941 297.28 86.4749 297.15 86.4528C297.02 86.4278 296.89 86.4128 296.759 86.4077C296.458 86.3959 296.188 86.4493 295.947 86.5678C295.709 86.6836 295.518 86.851 295.373 87.07C295.228 87.2861 295.15 87.536 295.139 87.8199L294.983 91.814L293.71 91.7643ZM300.827 92.1746C300.194 92.1498 299.655 91.9852 299.209 91.6806C298.766 91.3733 298.433 90.9608 298.208 90.4432C297.984 89.9255 297.885 89.3388 297.91 88.683C297.936 88.0188 298.084 87.4374 298.354 86.9391C298.624 86.4379 298.991 86.0528 299.457 85.7838C299.922 85.5148 300.463 85.3924 301.079 85.4164C301.575 85.4359 302.015 85.5454 302.396 85.7451C302.778 85.942 303.082 86.2097 303.308 86.5484C303.536 86.8871 303.664 87.2773 303.693 87.7191L302.453 87.6707C302.397 87.3614 302.251 87.0913 302.016 86.8604C301.783 86.6295 301.464 86.5062 301.058 86.4903C300.703 86.4765 300.389 86.558 300.115 86.7349C299.843 86.9091 299.627 87.1651 299.466 87.5028C299.305 87.8377 299.216 88.2379 299.198 88.7035C299.179 89.1804 299.235 89.5948 299.366 89.9468C299.498 90.2988 299.692 90.575 299.948 90.7755C300.208 90.9762 300.518 91.0835 300.878 91.0976C301.119 91.107 301.34 91.0716 301.539 90.9912C301.741 90.9081 301.912 90.7855 302.052 90.6232C302.195 90.461 302.298 90.2632 302.361 90.0297L303.6 90.0781C303.538 90.4993 303.386 90.8715 303.143 91.1946C302.9 91.5178 302.582 91.7669 302.188 91.942C301.798 92.1172 301.344 92.1948 300.827 92.1746ZM306.306 88.3671L306.154 92.2505L304.881 92.2007L305.222 83.4801L306.478 83.5292L306.351 86.7739L306.432 86.777C306.599 86.431 306.844 86.1606 307.167 85.9656C307.491 85.7707 307.906 85.6832 308.414 85.703C308.863 85.7206 309.251 85.8281 309.579 86.0257C309.909 86.2235 310.16 86.509 310.33 86.8824C310.503 87.2531 310.579 87.711 310.558 88.256L310.395 92.4162L309.122 92.3664L309.279 88.3596C309.297 87.8798 309.188 87.5031 308.952 87.2295C308.715 86.953 308.377 86.8061 307.937 86.7889C307.636 86.7772 307.364 86.8305 307.12 86.9489C306.88 87.0675 306.687 87.2476 306.541 87.4892C306.398 87.7281 306.319 88.0208 306.306 88.3671Z" fill="url(#paint3_linear_0_1)"/>
<path d="M324.772 84.7008L321.835 87.4162L319.119 84.4799L318.141 85.3851L320.856 88.3213L317.92 91.0368L318.825 92.0155L321.761 89.3001L324.477 92.2363L325.456 91.3312L322.741 88.3949L325.677 85.6795L324.772 84.7008Z" fill="white"/>
</g>
<g filter="url(#filter3_d_0_1)">
<rect width="208" height="52" transform="translate(9.20937 29.614) rotate(-4.30825)" fill="#181818"/>
<path fill-rule="evenodd" clip-rule="evenodd" d="M43.7933 48.5064C43.8165 48.7092 43.8345 48.9124 43.8498 49.1159C44.3145 55.2843 40.5118 62.7323 32.5769 63.33C30.1395 63.5137 27.8145 62.9076 25.8052 61.729C26.1456 61.7405 26.4905 61.7425 26.8386 61.7163C28.8595 61.564 30.6645 60.6746 32.0463 59.3056C30.1565 59.4201 28.4601 58.1807 27.771 56.3725C28.0391 56.4081 28.3129 56.4155 28.5909 56.3945C28.9828 56.365 29.3592 56.2809 29.7155 56.1424C27.7081 55.8659 26.0781 54.0914 25.9074 51.8256C25.9053 51.7979 25.9046 51.7886 25.9032 51.7701C26.5112 52.0684 27.1935 52.2308 27.9032 52.2052C26.6807 51.451 25.8108 50.075 25.6888 48.4566C25.6247 47.6058 25.7763 46.7852 26.0976 46.0634C28.4378 48.7331 31.758 50.3524 35.3578 50.2765C35.2583 49.9399 35.1935 49.5821 35.1663 49.2215C34.9719 46.6413 36.746 44.4057 39.1291 44.2261C40.3697 44.1327 41.5328 44.6125 42.3875 45.4595C43.3568 45.1819 44.2499 44.724 45.0442 44.1247C44.8029 45.2404 44.1888 46.2072 43.3395 46.8478C44.2044 46.6711 45.0185 46.3588 45.7631 45.9307C45.2539 46.9084 44.5864 47.7863 43.7933 48.5064Z" fill="#1EA1F2"/>
<path d="M69.1011 49.7826L67.7753 49.8825C67.703 49.6031 67.5893 49.3609 67.4343 49.1561C67.2792 48.9512 67.0955 48.7813 66.8831 48.6463C66.6706 48.5113 66.4369 48.415 66.1818 48.3573C65.9296 48.2994 65.6647 48.2809 65.387 48.3018C64.8856 48.3396 64.4461 48.4994 64.0685 48.7814C63.6937 49.0632 63.41 49.4564 63.2172 49.9609C63.0273 50.4653 62.9588 51.0687 63.0117 51.7713C63.0651 52.4795 63.2234 53.0687 63.4867 53.5389C63.7529 54.0088 64.0937 54.3535 64.5091 54.573C64.9245 54.7924 65.38 54.8834 65.8758 54.8461C66.1506 54.8254 66.4084 54.7689 66.6493 54.6767C66.8929 54.5814 67.1096 54.4525 67.2997 54.2901C67.4897 54.1276 67.6461 53.9349 67.7689 53.712C67.8944 53.486 67.9735 53.2322 68.0064 52.9505L69.3326 52.8549C69.294 53.288 69.1862 53.6921 69.0094 54.0673C68.8351 54.4394 68.5992 54.7677 68.3015 55.0522C68.0065 55.3337 67.6618 55.5605 67.2673 55.7327C66.8729 55.9048 66.4363 56.0089 65.9576 56.045C65.204 56.1018 64.5192 55.9739 63.903 55.6613C63.2867 55.3459 62.7834 54.8668 62.3931 54.2238C62.0056 53.5807 61.7769 52.7959 61.7072 51.8695C61.6372 50.9404 61.7471 50.1301 62.0368 49.4388C62.3264 48.7446 62.7524 48.1968 63.3147 47.7955C63.8769 47.3913 64.5333 47.161 65.284 47.1044C65.7458 47.0696 66.1814 47.1038 66.5909 47.2068C67.0029 47.3068 67.3786 47.4723 67.718 47.7031C68.0571 47.9311 68.3452 48.2199 68.5824 48.5696C68.8193 48.9164 68.9922 49.3208 69.1011 49.7826ZM71.0127 55.5445L70.521 49.0176L71.7491 48.925L71.8272 49.9619L71.8952 49.9568C71.9877 49.5965 72.1765 49.3045 72.4616 49.0808C72.7494 48.854 73.0845 48.7261 73.4669 48.6973C73.5462 48.6914 73.6399 48.6871 73.748 48.6847C73.8589 48.682 73.9459 48.6826 74.0088 48.6864L74.1004 49.9017C74.0483 49.8914 73.9565 49.8827 73.8249 49.8755C73.6931 49.8655 73.562 49.8654 73.4317 49.8752C73.1314 49.8978 72.8685 49.9817 72.643 50.1269C72.4201 50.2691 72.2491 50.4571 72.13 50.6912C72.0106 50.9224 71.9617 51.1796 71.983 51.4629L72.2833 55.4488L71.0127 55.5445ZM76.7913 57.5707C76.6015 57.585 76.4276 57.5824 76.2694 57.563C76.1115 57.5464 75.993 57.524 75.9139 57.4958L76.1414 56.4316C76.3784 56.4764 76.5873 56.4878 76.7679 56.4656C76.9486 56.4435 77.1035 56.3634 77.2327 56.2255C77.3648 56.0873 77.4737 55.8697 77.5596 55.5727L77.6842 55.1274L74.798 48.6954L76.1577 48.5929L78.1923 53.5336L78.2603 53.5285L79.5317 48.3387L80.8957 48.236L78.7632 55.8367C78.6642 56.186 78.5272 56.4855 78.3523 56.7351C78.1776 56.9876 77.9616 57.1834 77.7043 57.3224C77.4469 57.4615 77.1426 57.5442 76.7913 57.5707ZM82.7659 57.1206L82.0898 48.146L83.3306 48.0525L83.4103 49.1106L83.5165 49.1026C83.5799 48.9611 83.6743 48.7959 83.7997 48.6069C83.9251 48.418 84.106 48.2477 84.3424 48.096C84.5786 47.9414 84.8993 47.8489 85.3044 47.8184C85.8313 47.7787 86.3116 47.8764 86.7452 48.1115C87.1789 48.3467 87.5322 48.7061 87.8051 49.1898C88.0808 49.6733 88.2453 50.2677 88.2984 50.9731C88.3515 51.6785 88.2795 52.2922 88.0824 52.8141C87.8851 53.3333 87.5912 53.7443 87.201 54.0472C86.8105 54.3473 86.3518 54.5171 85.8248 54.5568C85.4282 54.5867 85.0989 54.5446 84.8367 54.4304C84.5774 54.3161 84.3702 54.175 84.2151 54.0072C84.06 53.8394 83.939 53.689 83.852 53.5559L83.7755 53.5617L84.0364 57.0249L82.7659 57.1206ZM83.5807 51.3157C83.6153 51.7746 83.7121 52.1719 83.8713 52.5075C84.0305 52.843 84.2435 53.0991 84.5104 53.2755C84.777 53.4492 85.0931 53.5222 85.4585 53.4947C85.8381 53.4661 86.1478 53.3416 86.3876 53.1213C86.6272 52.8981 86.799 52.6074 86.9031 52.2491C87.01 51.8907 87.047 51.4933 87.0142 51.057C86.9817 50.6264 86.8874 50.2447 86.7313 49.9117C86.578 49.5785 86.365 49.3225 86.0922 49.1436C85.8223 48.9645 85.4962 48.8894 85.1137 48.9182C84.7455 48.9459 84.441 49.0643 84.2003 49.2733C83.9625 49.4821 83.7912 49.7614 83.6865 50.1112C83.5818 50.4609 83.5466 50.8624 83.5807 51.3157ZM92.5219 47.3601L92.5987 48.38L89.0335 48.6485L88.9567 47.6287L92.5219 47.3601ZM89.795 45.9929L91.0655 45.8972L91.5307 52.0715C91.5492 52.3179 91.6 52.5007 91.6831 52.6198C91.7659 52.7361 91.8671 52.8125 91.9867 52.8491C92.1089 52.8826 92.2394 52.8941 92.3782 52.8837C92.4802 52.876 92.5689 52.8622 92.6443 52.8423C92.7197 52.8223 92.7783 52.8065 92.8202 52.7948L93.1287 53.8271C93.0572 53.861 92.9545 53.8972 92.8207 53.9358C92.6871 53.9772 92.5184 54.007 92.3146 54.0252C91.9808 54.056 91.6647 54.02 91.3663 53.9172C91.068 53.8143 90.8197 53.6392 90.6216 53.3921C90.4235 53.1449 90.3096 52.8244 90.28 52.4306L89.795 45.9929ZM97.1082 53.7111C96.4963 53.7572 95.9517 53.6572 95.4745 53.4111C94.9973 53.165 94.6136 52.7993 94.3235 52.3141C94.0334 51.8288 93.8629 51.2491 93.8121 50.5748C93.7611 49.8978 93.8426 49.2962 94.0565 48.7701C94.2704 48.244 94.5949 47.8236 95.0298 47.5088C95.4648 47.194 95.9882 47.0135 96.6001 46.9674C97.212 46.9213 97.7566 47.0213 98.2338 47.2674C98.711 47.5135 99.0948 47.8806 99.3851 48.3687C99.6755 48.8568 99.8461 49.4394 99.8972 50.1164C99.9479 50.7906 99.8663 51.3894 99.6521 51.9126C99.438 52.4359 99.1134 52.8549 98.6785 53.1697C98.2435 53.4845 97.7201 53.665 97.1082 53.7111ZM97.0321 52.6442C97.4287 52.6143 97.7494 52.4847 97.9942 52.2555C98.2391 52.0262 98.4107 51.7326 98.5091 51.3748C98.6103 51.0168 98.6451 50.6281 98.6135 50.2088C98.5822 49.7924 98.4896 49.4148 98.3359 49.0759C98.1848 48.734 97.9709 48.4667 97.6943 48.2738C97.4176 48.081 97.081 47.9995 96.6844 48.0294C96.285 48.0595 95.9615 48.1907 95.7141 48.423C95.4695 48.6551 95.2966 48.9516 95.1956 49.3125C95.0972 49.6703 95.0637 50.0575 95.0951 50.4739C95.1267 50.8932 95.2179 51.2723 95.3688 51.6114C95.5225 51.9502 95.7376 52.2146 96.014 52.4046C96.2933 52.5944 96.6326 52.6743 97.0321 52.6442ZM101.743 55.6909L101.067 46.7163L102.308 46.6229L102.388 47.681L102.494 47.6729C102.557 47.5314 102.652 47.3662 102.777 47.1773C102.903 46.9883 103.083 46.818 103.32 46.6663C103.556 46.5118 103.877 46.4192 104.282 46.3887C104.809 46.349 105.289 46.4467 105.723 46.6819C106.156 46.917 106.51 47.2764 106.783 47.7601C107.058 48.2436 107.223 48.8381 107.276 49.5434C107.329 50.2488 107.257 50.8625 107.06 51.3845C106.863 51.9036 106.569 52.3146 106.178 52.6175C105.788 52.9176 105.329 53.0875 104.802 53.1272C104.406 53.157 104.076 53.1149 103.814 53.0008C103.555 52.8864 103.348 52.7453 103.193 52.5775C103.037 52.4097 102.916 52.2593 102.83 52.1262L102.753 52.132L103.014 55.5952L101.743 55.6909ZM102.558 49.886C102.593 50.345 102.69 50.7422 102.849 51.0778C103.008 51.4134 103.221 51.6694 103.488 51.8459C103.754 52.0195 104.071 52.0926 104.436 52.065C104.816 52.0364 105.125 51.912 105.365 51.6916C105.605 51.4685 105.777 51.1777 105.881 50.8195C105.987 50.461 106.024 50.0636 105.992 49.6274C105.959 49.1968 105.865 48.815 105.709 48.482C105.555 48.1489 105.342 47.8928 105.07 47.7139C104.8 47.5349 104.474 47.4597 104.091 47.4885C103.723 47.5163 103.418 47.6346 103.178 47.8437C102.94 48.0524 102.769 48.3317 102.664 48.6815C102.559 49.0313 102.524 49.4328 102.558 49.886ZM112.875 49.6686L112.587 45.8485L113.862 45.7525L114.354 52.2794L113.104 52.3735L113.019 51.2432L112.951 51.2483C112.827 51.6081 112.608 51.9166 112.294 52.1739C111.983 52.4281 111.582 52.5737 111.092 52.6106C110.673 52.6422 110.295 52.578 109.958 52.4182C109.624 52.2554 109.351 51.9982 109.139 51.6466C108.931 51.2948 108.806 50.8498 108.765 50.3116L108.453 46.16L109.723 46.0643L110.024 50.0629C110.058 50.5076 110.208 50.8525 110.474 51.0973C110.74 51.3422 111.07 51.4498 111.464 51.4202C111.702 51.4023 111.934 51.3249 112.16 51.1883C112.389 51.0513 112.573 50.8566 112.71 50.6041C112.851 50.3513 112.906 50.0395 112.875 49.6686ZM117.039 48.1797L117.331 52.0551L116.061 52.1508L115.569 45.6238L116.789 45.532L116.869 46.5943L116.949 46.5882C117.074 46.2313 117.288 45.936 117.592 45.7022C117.899 45.4682 118.298 45.3328 118.788 45.2959C119.233 45.2624 119.629 45.3265 119.978 45.4883C120.326 45.6473 120.606 45.9025 120.817 46.2541C121.029 46.6057 121.155 47.0506 121.196 47.5888L121.508 51.7404L120.238 51.8361L119.937 47.8375C119.901 47.3644 119.75 47.004 119.483 46.7563C119.217 46.5057 118.868 46.3967 118.437 46.4291C118.143 46.4513 117.886 46.5348 117.666 46.6796C117.449 46.8241 117.283 47.0246 117.168 47.2811C117.056 47.5346 117.013 47.8341 117.039 48.1797ZM124.214 49.3101L124.089 47.7597L124.31 47.7431L126.702 44.7851L128.224 44.6705L125.494 48.0385L125.295 48.0535L124.214 49.3101ZM123.212 51.612L122.557 42.9094L123.827 42.8137L124.483 51.5163L123.212 51.612ZM127.334 51.3015L124.763 48.3756L125.572 47.4215L128.894 51.184L127.334 51.3015ZM136.516 45.6782L136.6 46.7831L132.741 47.0737L132.658 45.9689L136.516 45.6782ZM146.111 43.4341C146.035 43.0352 145.825 42.7377 145.48 42.5415C145.134 42.3424 144.712 42.2617 144.214 42.2993C143.857 42.3262 143.552 42.4061 143.3 42.539C143.048 42.6691 142.857 42.8374 142.727 43.0437C142.6 43.247 142.545 43.4719 142.564 43.7184C142.58 43.9252 142.641 44.1 142.749 44.2429C142.859 44.3856 142.998 44.5019 143.164 44.592C143.333 44.679 143.512 44.7495 143.701 44.8036C143.89 44.8549 144.072 44.8954 144.245 44.9251L145.111 45.082C145.394 45.1291 145.686 45.1997 145.986 45.2939C146.287 45.388 146.569 45.5206 146.832 45.6917C147.096 45.8627 147.315 46.0827 147.489 46.3516C147.666 46.6203 147.769 46.9501 147.798 47.3411C147.836 47.834 147.741 48.2813 147.515 48.6829C147.292 49.0844 146.947 49.4137 146.483 49.6709C146.02 49.928 145.449 50.0821 144.77 50.1333C144.118 50.1824 143.546 50.1215 143.055 49.9505C142.563 49.7796 142.169 49.5144 141.871 49.1551C141.573 48.7929 141.39 48.3509 141.322 47.8289L142.64 47.7297C142.689 48.0422 142.811 48.2966 143.005 48.4928C143.202 48.6859 143.444 48.8229 143.732 48.9038C144.023 48.9816 144.337 49.0078 144.674 48.9824C145.045 48.9544 145.371 48.8715 145.651 48.7336C145.934 48.5926 146.151 48.411 146.303 48.1888C146.454 47.9637 146.519 47.7096 146.497 47.4263C146.478 47.1685 146.388 46.963 146.229 46.8098C146.072 46.6564 145.865 46.5352 145.607 46.4463C145.353 46.3573 145.066 46.2834 144.749 46.2247L143.699 46.0217C142.988 45.8844 142.414 45.647 141.979 45.3095C141.546 44.9717 141.307 44.4997 141.261 43.8935C141.223 43.392 141.326 42.9441 141.57 42.5497C141.814 42.1553 142.16 41.8371 142.609 41.5953C143.058 41.3507 143.574 41.2064 144.158 41.1624C144.747 41.1181 145.275 41.1823 145.741 41.3552C146.21 41.5278 146.588 41.7856 146.876 42.1286C147.164 42.4687 147.331 42.8721 147.377 43.3387L146.111 43.4341ZM152.27 49.5555C151.627 49.6039 151.062 49.5082 150.577 49.2685C150.094 49.0256 149.708 48.663 149.418 48.1806C149.131 47.6951 148.962 47.1138 148.911 46.4368C148.86 45.7682 148.941 45.1696 149.152 44.6409C149.365 44.112 149.687 43.6875 150.116 43.3674C150.547 43.0472 151.066 42.8642 151.672 42.8185C152.041 42.7908 152.402 42.8248 152.757 42.9206C153.112 43.0164 153.436 43.1842 153.731 43.4241C154.025 43.664 154.267 43.9863 154.457 44.3907C154.647 44.7924 154.764 45.2892 154.809 45.8813L154.843 46.3317L149.655 46.7226L149.583 45.7708L153.526 45.4737C153.501 45.1394 153.411 44.8485 153.255 44.601C153.1 44.3506 152.893 44.1596 152.635 44.028C152.38 43.8962 152.089 43.8427 151.76 43.8675C151.403 43.8944 151.098 44.0057 150.845 44.2014C150.595 44.394 150.408 44.636 150.284 44.9273C150.164 45.2156 150.115 45.5227 150.14 45.8485L150.196 46.5921C150.229 47.0283 150.333 47.3937 150.509 47.6881C150.688 47.9823 150.923 48.1997 151.212 48.3403C151.502 48.478 151.832 48.5329 152.203 48.5049C152.444 48.4868 152.661 48.4363 152.854 48.3533C153.047 48.2676 153.211 48.1498 153.345 48.0001C153.479 47.8504 153.576 47.6707 153.638 47.461L154.856 47.5871C154.787 47.9485 154.637 48.2717 154.408 48.5568C154.181 48.8388 153.887 49.0676 153.524 49.243C153.164 49.4155 152.746 49.5196 152.27 49.5555ZM158.38 49.108C157.967 49.1391 157.587 49.0908 157.241 48.963C156.895 48.8324 156.613 48.6271 156.395 48.3472C156.181 48.0671 156.057 47.7132 156.025 47.2854C155.997 46.9172 156.045 46.6087 156.169 46.3601C156.293 46.1114 156.47 45.9086 156.7 45.7517C156.93 45.5947 157.192 45.4696 157.484 45.3764C157.776 45.2832 158.075 45.2065 158.381 45.1464C158.768 45.0717 159.083 45.0109 159.324 44.9642C159.566 44.9147 159.739 44.8518 159.844 44.7755C159.95 44.6992 159.997 44.5845 159.985 44.4316L159.983 44.4018C159.955 44.0307 159.828 43.7511 159.603 43.5629C159.381 43.3745 159.065 43.2958 158.654 43.3267C158.226 43.359 157.896 43.4793 157.664 43.6876C157.435 43.893 157.282 44.1139 157.205 44.3504L155.991 44.1684C156.103 43.7611 156.285 43.4254 156.539 43.1613C156.795 42.8941 157.098 42.6919 157.446 42.5545C157.795 42.4143 158.166 42.3293 158.56 42.2997C158.82 42.28 159.099 42.2904 159.395 42.3307C159.694 42.368 159.977 42.4578 160.245 42.6001C160.514 42.7421 160.743 42.9571 160.93 43.245C161.117 43.5301 161.228 43.9106 161.264 44.3865L161.59 48.7208L160.349 48.8143L160.282 47.922L160.231 47.9258C160.161 48.0963 160.05 48.267 159.898 48.4381C159.746 48.6091 159.545 48.7567 159.295 48.881C159.045 49.0052 158.74 49.0809 158.38 49.108ZM158.579 48.0673C158.931 48.0409 159.226 47.9488 159.465 47.7912C159.706 47.6334 159.884 47.4377 159.997 47.2041C160.113 46.9674 160.162 46.7202 160.142 46.4624L160.079 45.6211C160.037 45.6698 159.952 45.7189 159.825 45.7684C159.7 45.8148 159.557 45.8584 159.395 45.8991C159.232 45.937 159.074 45.9731 158.92 46.0075C158.766 46.0391 158.637 46.0659 158.533 46.088C158.289 46.1377 158.068 46.2071 157.869 46.2961C157.674 46.3849 157.52 46.5033 157.409 46.6513C157.3 46.7962 157.254 46.982 157.271 47.2086C157.295 47.5231 157.429 47.7523 157.673 47.8963C157.918 48.0374 158.22 48.0944 158.579 48.0673ZM163.283 48.5933L162.791 42.0664L164.019 41.9739L164.097 43.0107L164.165 43.0056C164.257 42.6453 164.446 42.3533 164.731 42.1296C165.019 41.9028 165.354 41.775 165.737 41.7462C165.816 41.7402 165.91 41.736 166.018 41.7335C166.129 41.7309 166.216 41.7315 166.279 41.7353L166.37 42.9506C166.318 42.9402 166.226 42.9315 166.095 42.9243C165.963 42.9143 165.832 42.9142 165.702 42.924C165.401 42.9466 165.138 43.0305 164.913 43.1757C164.69 43.3179 164.519 43.506 164.4 43.74C164.28 43.9712 164.231 44.2285 164.253 44.5118L164.553 48.4976L163.283 48.5933ZM170.4 48.1896C169.769 48.2372 169.214 48.1351 168.736 47.8833C168.261 47.6285 167.883 47.2568 167.601 46.768C167.319 46.2793 167.154 45.7077 167.104 45.0533C167.054 44.3904 167.135 43.7961 167.346 43.2702C167.557 42.7415 167.878 42.317 168.31 41.9967C168.742 41.6765 169.265 41.4932 169.88 41.4469C170.375 41.4095 170.824 41.4683 171.226 41.6232C171.628 41.7753 171.96 42.0066 172.223 42.3173C172.489 42.6278 172.661 43.0009 172.739 43.4366L171.502 43.5297C171.411 43.2289 171.236 42.9772 170.975 42.7746C170.718 42.5717 170.387 42.4856 169.982 42.5161C169.628 42.5428 169.324 42.6596 169.072 42.8667C168.823 43.0706 168.637 43.3496 168.516 43.7035C168.394 44.0545 168.35 44.4623 168.385 44.9269C168.421 45.4028 168.525 45.8082 168.695 46.1429C168.866 46.4776 169.09 46.73 169.367 46.8999C169.648 47.0697 169.968 47.141 170.328 47.1139C170.569 47.0957 170.784 47.0354 170.972 46.9328C171.164 46.8272 171.32 46.6859 171.441 46.5087C171.564 46.3313 171.644 46.123 171.68 45.8838L172.916 45.7907C172.903 46.2162 172.794 46.6033 172.589 46.9521C172.385 47.3008 172.097 47.5846 171.726 47.8034C171.358 48.022 170.916 48.1507 170.4 48.1896ZM175.409 43.7824L175.701 47.6578L174.431 47.7535L173.775 39.0509L175.029 38.9565L175.272 42.1944L175.353 42.1884C175.48 41.8256 175.692 41.5289 175.991 41.2984C176.29 41.0679 176.693 40.9336 177.2 40.8954C177.648 40.8617 178.046 40.9243 178.394 41.0832C178.745 41.242 179.026 41.4971 179.238 41.8487C179.452 42.1972 179.58 42.6434 179.621 43.1874L179.933 47.3389L178.663 47.4347L178.362 43.436C178.326 42.9573 178.174 42.5955 177.908 42.3506C177.642 42.1028 177.289 41.9955 176.85 42.0286C176.549 42.0512 176.285 42.1352 176.057 42.2806C175.831 42.4258 175.66 42.6268 175.542 42.8835C175.428 43.1372 175.383 43.4368 175.409 43.7824Z" fill="url(#paint4_linear_0_1)"/>
<path d="M203.129 37.2972L200.521 40.3297L197.488 37.7222L196.619 38.733L199.652 41.3405L197.044 44.373L198.055 45.2422L200.663 42.2097L203.696 44.8172L204.565 43.8064L201.532 41.1989L204.14 38.1664L203.129 37.2972Z" fill="white"/>
</g>
<defs>
<filter id="filter0_d_0_1" x="464" y="45" width="248.068" height="104.013" filterUnits="userSpaceOnUse" color-interpolation-filters="sRGB">
<feFlood flood-opacity="0" result="BackgroundImageFix"/>
<feColorMatrix in="SourceAlpha" type="matrix" values="0 0 0 0 0 0 0 0 0 0 0 0 0 0 0 0 0 0 127 0" result="hardAlpha"/>
<feOffset dx="10" dy="6"/>
<feGaussianBlur stdDeviation="9.5"/>
<feComposite in2="hardAlpha" operator="out"/>
<feColorMatrix type="matrix" values="0 0 0 0 0 0 0 0 0 0 0 0 0 0 0 0 0 0 0.35 0"/>
<feBlend mode="normal" in2="BackgroundImageFix" result="effect1_dropShadow_0_1"/>
<feBlend mode="normal" in="SourceGraphic" in2="effect1_dropShadow_0_1" result="shape"/>
</filter>
<filter id="filter1_d_0_1" x="286" y="14" width="247.794" height="99.3867" filterUnits="userSpaceOnUse" color-interpolation-filters="sRGB">
<feFlood flood-opacity="0" result="BackgroundImageFix"/>
<feColorMatrix in="SourceAlpha" type="matrix" values="0 0 0 0 0 0 0 0 0 0 0 0 0 0 0 0 0 0 127 0" result="hardAlpha"/>
<feOffset dx="10" dy="6"/>
<feGaussianBlur stdDeviation="9.5"/>
<feComposite in2="hardAlpha" operator="out"/>
<feColorMatrix type="matrix" values="0 0 0 0 0 0 0 0 0 0 0 0 0 0 0 0 0 0 0.35 0"/>
<feBlend mode="normal" in2="BackgroundImageFix" result="effect1_dropShadow_0_1"/>
<feBlend mode="normal" in="SourceGraphic" in2="effect1_dropShadow_0_1" result="shape"/>
</filter>
<filter id="filter2_d_0_1" x="123" y="43" width="246.794" height="96.0432" filterUnits="userSpaceOnUse" color-interpolation-filters="sRGB">
<feFlood flood-opacity="0" result="BackgroundImageFix"/>
<feColorMatrix in="SourceAlpha" type="matrix" values="0 0 0 0 0 0 0 0 0 0 0 0 0 0 0 0 0 0 127 0" result="hardAlpha"/>
<feOffset dx="10" dy="6"/>
<feGaussianBlur stdDeviation="9.5"/>
<feComposite in2="hardAlpha" operator="out"/>
<feColorMatrix type="matrix" values="0 0 0 0 0 0 0 0 0 0 0 0 0 0 0 0 0 0 0.35 0"/>
<feBlend mode="normal" in2="BackgroundImageFix" result="effect1_dropShadow_0_1"/>
<feBlend mode="normal" in="SourceGraphic" in2="effect1_dropShadow_0_1" result="shape"/>
</filter>
<filter id="filter3_d_0_1" x="0.209373" y="0.988525" width="249.319" height="105.479" filterUnits="userSpaceOnUse" color-interpolation-filters="sRGB">
<feFlood flood-opacity="0" result="BackgroundImageFix"/>
<feColorMatrix in="SourceAlpha" type="matrix" values="0 0 0 0 0 0 0 0 0 0 0 0 0 0 0 0 0 0 127 0" result="hardAlpha"/>
<feOffset dx="10" dy="6"/>
<feGaussianBlur stdDeviation="9.5"/>
<feComposite in2="hardAlpha" operator="out"/>
<feColorMatrix type="matrix" values="0 0 0 0 0 0 0 0 0 0 0 0 0 0 0 0 0 0 0.35 0"/>
<feBlend mode="normal" in2="BackgroundImageFix" result="effect1_dropShadow_0_1"/>
<feBlend mode="normal" in="SourceGraphic" in2="effect1_dropShadow_0_1" result="shape"/>
</filter>
<linearGradient id="paint0_linear_0_1" x1="584.532" y1="83.9337" x2="645.955" y2="98.6458" gradientUnits="userSpaceOnUse">
<stop stop-color="white"/>
<stop offset="1" stop-color="#1C1C1C" stop-opacity="0"/>
</linearGradient>
<linearGradient id="paint1_linear_0_1" x1="320.297" y1="70.3146" x2="319.573" y2="50.0543" gradientUnits="userSpaceOnUse">
<stop stop-color="#0062E0"/>
<stop offset="1" stop-color="#19AFFF"/>
</linearGradient>
<linearGradient id="paint2_linear_0_1" x1="405.626" y1="49.9842" x2="483.461" y2="63.6261" gradientUnits="userSpaceOnUse">
<stop stop-color="white"/>
<stop offset="1" stop-color="#1C1C1C" stop-opacity="0"/>
</linearGradient>
<linearGradient id="paint3_linear_0_1" x1="242.685" y1="77.7616" x2="318.789" y2="96.9339" gradientUnits="userSpaceOnUse">
<stop stop-color="white"/>
<stop offset="1" stop-color="#1C1C1C" stop-opacity="0"/>
</linearGradient>
<linearGradient id="paint4_linear_0_1" x1="120.288" y1="39.7983" x2="188.038" y2="46.925" gradientUnits="userSpaceOnUse">
<stop stop-color="white"/>
<stop offset="1" stop-color="#1C1C1C" stop-opacity="0"/>
</linearGradient>
</defs>
</svg>
