<svg width="432" height="125" viewBox="0 0 432 125" fill="none" xmlns="http://www.w3.org/2000/svg">
<rect x="64" width="299" height="125" rx="4" fill="white"/>
<rect width="195" height="43" transform="translate(116 41)" fill="#181818"/>
<circle cx="135.5" cy="62.5" r="9.5" fill="#A8FF35"/>
<path d="M139.985 62.7329C139.965 62.6333 139.917 62.5415 139.847 62.4682C139.777 62.3948 139.687 62.343 139.588 62.3187L135.903 61.3969L137.266 58.2161C137.314 58.1057 137.323 57.9826 137.292 57.8665C137.261 57.7503 137.192 57.648 137.096 57.5758C137 57.5031 136.882 57.4648 136.762 57.4671C136.642 57.4695 136.526 57.5123 136.433 57.5886L130.524 62.4235C130.447 62.4865 130.388 62.5698 130.356 62.6639C130.323 62.758 130.318 62.8593 130.339 62.9565C130.361 63.0537 130.41 63.1429 130.479 63.2142C130.549 63.2855 130.637 63.3361 130.733 63.3603L134.343 64.2634L132.546 67.4082C132.499 67.4899 132.475 67.5823 132.476 67.6762C132.476 67.7701 132.501 67.8623 132.548 67.9436C132.595 68.0248 132.663 68.0922 132.744 68.1392C132.826 68.1862 132.918 68.211 133.012 68.2113C133.128 68.2115 133.241 68.1738 133.334 68.1038L139.781 63.269C139.862 63.2081 139.924 63.1254 139.96 63.0305C139.996 62.9356 140.005 62.8324 139.985 62.7329V62.7329Z" fill="black"/>
<path d="M161.959 67V58.2727H167.371V59.4062H163.276V62.0653H166.983V63.1946H163.276V67H161.959ZM168.888 67V60.4545H170.162V67H168.888ZM169.531 59.4446C169.31 59.4446 169.119 59.3707 168.96 59.223C168.804 59.0724 168.726 58.8935 168.726 58.6861C168.726 58.4759 168.804 58.2969 168.96 58.1491C169.119 57.9986 169.31 57.9233 169.531 57.9233C169.753 57.9233 169.942 57.9986 170.098 58.1491C170.257 58.2969 170.337 58.4759 170.337 58.6861C170.337 58.8935 170.257 59.0724 170.098 59.223C169.942 59.3707 169.753 59.4446 169.531 59.4446ZM173.15 63.1136V67H171.876V60.4545H173.099V61.5199H173.18C173.331 61.1733 173.566 60.8949 173.887 60.6847C174.211 60.4744 174.619 60.3693 175.11 60.3693C175.556 60.3693 175.947 60.4631 176.282 60.6506C176.618 60.8352 176.877 61.1108 177.062 61.4773C177.247 61.8437 177.339 62.2969 177.339 62.8366V67H176.065V62.9901C176.065 62.5156 175.941 62.1449 175.694 61.8778C175.447 61.608 175.108 61.473 174.676 61.473C174.38 61.473 174.118 61.5369 173.887 61.6648C173.66 61.7926 173.48 61.9801 173.346 62.2273C173.216 62.4716 173.15 62.767 173.15 63.1136ZM181.498 67.1278C180.97 67.1278 180.498 66.9929 180.083 66.723C179.672 66.4503 179.348 66.0625 179.112 65.5597C178.879 65.054 178.762 64.4474 178.762 63.7401C178.762 63.0327 178.88 62.4276 179.116 61.9247C179.355 61.4219 179.681 61.0369 180.096 60.7699C180.511 60.5028 180.981 60.3693 181.507 60.3693C181.913 60.3693 182.24 60.4375 182.487 60.5739C182.737 60.7074 182.93 60.8636 183.066 61.0426C183.206 61.2216 183.314 61.3793 183.39 61.5156H183.467V58.2727H184.741V67H183.497V65.9815H183.39C183.314 66.1207 183.203 66.2798 183.058 66.4588C182.916 66.6378 182.72 66.794 182.47 66.9276C182.22 67.0611 181.896 67.1278 181.498 67.1278ZM181.779 66.0412C182.146 66.0412 182.456 65.9446 182.708 65.7514C182.964 65.5554 183.157 65.2841 183.288 64.9375C183.422 64.5909 183.488 64.1875 183.488 63.7273C183.488 63.2727 183.423 62.875 183.292 62.5341C183.162 62.1932 182.97 61.9276 182.717 61.7372C182.464 61.5469 182.152 61.4517 181.779 61.4517C181.396 61.4517 181.076 61.5511 180.821 61.75C180.565 61.9489 180.372 62.2202 180.241 62.5639C180.113 62.9077 180.049 63.2955 180.049 63.7273C180.049 64.1648 180.115 64.5582 180.245 64.9077C180.376 65.2571 180.569 65.5341 180.825 65.7386C181.083 65.9403 181.402 66.0412 181.779 66.0412ZM189.615 60.4545V61.4773H186.04V60.4545H189.615ZM186.999 58.8864H188.273V65.0781C188.273 65.3253 188.31 65.5114 188.384 65.6364C188.457 65.7585 188.553 65.8423 188.669 65.8878C188.788 65.9304 188.918 65.9517 189.057 65.9517C189.159 65.9517 189.249 65.9446 189.325 65.9304C189.402 65.9162 189.462 65.9048 189.504 65.8963L189.734 66.9489C189.661 66.9773 189.555 67.0057 189.419 67.0341C189.283 67.0653 189.112 67.0824 188.908 67.0852C188.572 67.0909 188.26 67.0312 187.97 66.9062C187.68 66.7812 187.446 66.5881 187.267 66.3267C187.088 66.0653 186.999 65.7372 186.999 65.3423V58.8864ZM191.025 67V60.4545H192.256V61.4943H192.324C192.444 61.142 192.654 60.8651 192.955 60.6634C193.259 60.4588 193.603 60.3565 193.986 60.3565C194.066 60.3565 194.159 60.3594 194.267 60.3651C194.378 60.3707 194.465 60.3778 194.527 60.3864V61.6051C194.476 61.5909 194.385 61.5753 194.255 61.5582C194.124 61.5384 193.993 61.5284 193.863 61.5284C193.561 61.5284 193.293 61.5923 193.057 61.7202C192.824 61.8452 192.64 62.0199 192.503 62.2443C192.367 62.4659 192.299 62.7187 192.299 63.0028V67H191.025ZM198.217 67.1321C197.572 67.1321 197.016 66.9943 196.55 66.7188C196.087 66.4403 195.729 66.0497 195.477 65.5469C195.227 65.0412 195.102 64.4489 195.102 63.7699C195.102 63.0994 195.227 62.5085 195.477 61.9972C195.729 61.4858 196.082 61.0866 196.533 60.7997C196.988 60.5128 197.519 60.3693 198.127 60.3693C198.496 60.3693 198.854 60.4304 199.201 60.5526C199.548 60.6747 199.859 60.8665 200.134 61.1278C200.41 61.3892 200.627 61.7287 200.786 62.1463C200.945 62.5611 201.025 63.0653 201.025 63.6591V64.1108H195.822V63.1562H199.776C199.776 62.821 199.708 62.5241 199.572 62.2656C199.435 62.0043 199.244 61.7983 198.996 61.6477C198.752 61.4972 198.465 61.4219 198.136 61.4219C197.778 61.4219 197.465 61.5099 197.198 61.6861C196.934 61.8594 196.729 62.0866 196.585 62.3679C196.442 62.6463 196.371 62.9489 196.371 63.2756V64.0213C196.371 64.4588 196.448 64.831 196.602 65.1378C196.758 65.4446 196.975 65.679 197.254 65.8409C197.532 66 197.857 66.0795 198.229 66.0795C198.471 66.0795 198.691 66.0455 198.89 65.9773C199.089 65.9062 199.261 65.8011 199.406 65.6619C199.55 65.5227 199.661 65.3509 199.738 65.1463L200.944 65.3636C200.847 65.7187 200.674 66.0298 200.424 66.2969C200.177 66.5611 199.866 66.767 199.491 66.9148C199.119 67.0597 198.694 67.1321 198.217 67.1321ZM203.713 63.1136V67H202.439V60.4545H203.662V61.5199H203.743C203.893 61.1733 204.129 60.8949 204.45 60.6847C204.774 60.4744 205.181 60.3693 205.673 60.3693C206.119 60.3693 206.51 60.4631 206.845 60.6506C207.18 60.8352 207.44 61.1108 207.625 61.4773C207.809 61.8437 207.902 62.2969 207.902 62.8366V67H206.627V62.9901C206.627 62.5156 206.504 62.1449 206.257 61.8778C206.01 61.608 205.67 61.473 205.238 61.473C204.943 61.473 204.68 61.5369 204.45 61.6648C204.223 61.7926 204.042 61.9801 203.909 62.2273C203.778 62.4716 203.713 62.767 203.713 63.1136ZM212.061 67.1278C211.532 67.1278 211.061 66.9929 210.646 66.723C210.234 66.4503 209.91 66.0625 209.674 65.5597C209.441 65.054 209.325 64.4474 209.325 63.7401C209.325 63.0327 209.443 62.4276 209.679 61.9247C209.917 61.4219 210.244 61.0369 210.659 60.7699C211.074 60.5028 211.544 60.3693 212.069 60.3693C212.475 60.3693 212.802 60.4375 213.049 60.5739C213.299 60.7074 213.493 60.8636 213.629 61.0426C213.768 61.2216 213.876 61.3793 213.953 61.5156H214.029V58.2727H215.304V67H214.059V65.9815H213.953C213.876 66.1207 213.765 66.2798 213.62 66.4588C213.478 66.6378 213.282 66.794 213.032 66.9276C212.782 67.0611 212.458 67.1278 212.061 67.1278ZM212.342 66.0412C212.708 66.0412 213.018 65.9446 213.271 65.7514C213.527 65.5554 213.72 65.2841 213.85 64.9375C213.984 64.5909 214.051 64.1875 214.051 63.7273C214.051 63.2727 213.985 62.875 213.855 62.5341C213.724 62.1932 213.532 61.9276 213.279 61.7372C213.027 61.5469 212.714 61.4517 212.342 61.4517C211.958 61.4517 211.639 61.5511 211.383 61.75C211.127 61.9489 210.934 62.2202 210.804 62.5639C210.676 62.9077 210.612 63.2955 210.612 63.7273C210.612 64.1648 210.677 64.5582 210.808 64.9077C210.939 65.2571 211.132 65.5341 211.387 65.7386C211.646 65.9403 211.964 66.0412 212.342 66.0412ZM224.154 62.0824V63.1903H220.285V62.0824H224.154ZM233.891 60.5653C233.845 60.1619 233.658 59.8494 233.328 59.6278C232.999 59.4034 232.584 59.2912 232.084 59.2912C231.726 59.2912 231.416 59.348 231.155 59.4616C230.893 59.5724 230.69 59.7259 230.545 59.9219C230.403 60.1151 230.332 60.3352 230.332 60.5824C230.332 60.7898 230.381 60.9687 230.477 61.1193C230.577 61.2699 230.706 61.3963 230.865 61.4986C231.027 61.598 231.2 61.6818 231.385 61.75C231.57 61.8153 231.747 61.8693 231.918 61.9119L232.77 62.1335C233.048 62.2017 233.334 62.294 233.626 62.4105C233.919 62.527 234.19 62.6804 234.44 62.8707C234.69 63.0611 234.892 63.2969 235.045 63.5781C235.202 63.8594 235.28 64.196 235.28 64.5881C235.28 65.0824 235.152 65.5213 234.896 65.9048C234.643 66.2884 234.276 66.5909 233.793 66.8125C233.313 67.0341 232.732 67.1449 232.05 67.1449C231.396 67.1449 230.831 67.0412 230.354 66.8338C229.876 66.6264 229.503 66.3324 229.233 65.9517C228.963 65.5682 228.814 65.1136 228.786 64.5881H230.107C230.132 64.9034 230.234 65.1662 230.413 65.3764C230.595 65.5838 230.827 65.7386 231.108 65.8409C231.392 65.9403 231.703 65.9901 232.041 65.9901C232.413 65.9901 232.744 65.9318 233.034 65.8153C233.327 65.696 233.557 65.5312 233.724 65.321C233.892 65.108 233.976 64.8594 233.976 64.5753C233.976 64.3168 233.902 64.1051 233.754 63.9403C233.609 63.7756 233.412 63.6392 233.162 63.5312C232.915 63.4233 232.635 63.3281 232.322 63.2457L231.291 62.9645C230.592 62.7741 230.038 62.4943 229.629 62.125C229.223 61.7557 229.02 61.267 229.02 60.6591C229.02 60.1562 229.156 59.7173 229.429 59.3423C229.702 58.9673 230.071 58.6761 230.537 58.4688C231.003 58.2585 231.528 58.1534 232.114 58.1534C232.705 58.1534 233.226 58.2571 233.678 58.4645C234.132 58.6719 234.49 58.9574 234.751 59.321C235.013 59.6818 235.149 60.0966 235.161 60.5653H233.891ZM239.572 67.1321C238.927 67.1321 238.372 66.9943 237.906 66.7188C237.443 66.4403 237.085 66.0497 236.832 65.5469C236.582 65.0412 236.457 64.4489 236.457 63.7699C236.457 63.0994 236.582 62.5085 236.832 61.9972C237.085 61.4858 237.437 61.0866 237.889 60.7997C238.343 60.5128 238.875 60.3693 239.483 60.3693C239.852 60.3693 240.21 60.4304 240.556 60.5526C240.903 60.6747 241.214 60.8665 241.49 61.1278C241.765 61.3892 241.983 61.7287 242.142 62.1463C242.301 62.5611 242.38 63.0653 242.38 63.6591V64.1108H237.177V63.1562H241.132C241.132 62.821 241.064 62.5241 240.927 62.2656C240.791 62.0043 240.599 61.7983 240.352 61.6477C240.108 61.4972 239.821 61.4219 239.491 61.4219C239.133 61.4219 238.821 61.5099 238.554 61.6861C238.289 61.8594 238.085 62.0866 237.94 62.3679C237.798 62.6463 237.727 62.9489 237.727 63.2756V64.0213C237.727 64.4588 237.804 64.831 237.957 65.1378C238.113 65.4446 238.331 65.679 238.609 65.8409C238.887 66 239.213 66.0795 239.585 66.0795C239.826 66.0795 240.047 66.0455 240.245 65.9773C240.444 65.9062 240.616 65.8011 240.761 65.6619C240.906 65.5227 241.017 65.3509 241.093 65.1463L242.299 65.3636C242.203 65.7187 242.029 66.0298 241.779 66.2969C241.532 66.5611 241.221 66.767 240.846 66.9148C240.474 67.0597 240.049 67.1321 239.572 67.1321ZM245.699 67.1449C245.284 67.1449 244.909 67.0682 244.574 66.9148C244.239 66.7585 243.973 66.5327 243.777 66.2372C243.584 65.9418 243.487 65.5795 243.487 65.1506C243.487 64.7812 243.558 64.4773 243.7 64.2386C243.842 64 244.034 63.8111 244.276 63.6719C244.517 63.5327 244.787 63.4276 245.085 63.3565C245.384 63.2855 245.688 63.2315 245.997 63.1946C246.389 63.1491 246.707 63.1122 246.952 63.0838C247.196 63.0526 247.374 63.0028 247.484 62.9347C247.595 62.8665 247.651 62.7557 247.651 62.6023V62.5724C247.651 62.2003 247.545 61.9119 247.335 61.7074C247.128 61.5028 246.818 61.4006 246.406 61.4006C245.977 61.4006 245.639 61.4957 245.392 61.6861C245.148 61.8736 244.979 62.0824 244.885 62.3125L243.688 62.0398C243.83 61.642 244.037 61.321 244.31 61.0767C244.585 60.8295 244.902 60.6506 245.26 60.5398C245.618 60.4261 245.994 60.3693 246.389 60.3693C246.651 60.3693 246.928 60.4006 247.22 60.4631C247.516 60.5227 247.791 60.6335 248.047 60.7955C248.305 60.9574 248.517 61.1889 248.682 61.4901C248.847 61.7884 248.929 62.1761 248.929 62.6534V67H247.685V66.1051H247.634C247.551 66.2699 247.428 66.4318 247.263 66.5909C247.098 66.75 246.886 66.8821 246.628 66.9872C246.369 67.0923 246.06 67.1449 245.699 67.1449ZM245.976 66.1222C246.328 66.1222 246.629 66.0526 246.879 65.9134C247.132 65.7741 247.324 65.5923 247.455 65.3679C247.588 65.1406 247.655 64.8977 247.655 64.6392V63.7955C247.609 63.8409 247.521 63.8835 247.391 63.9233C247.263 63.9602 247.116 63.9929 246.952 64.0213C246.787 64.0469 246.626 64.071 246.47 64.0938C246.314 64.1136 246.183 64.1307 246.078 64.1449C245.831 64.1761 245.605 64.2287 245.401 64.3026C245.199 64.3764 245.037 64.483 244.915 64.6222C244.795 64.7585 244.736 64.9403 244.736 65.1676C244.736 65.483 244.852 65.7216 245.085 65.8835C245.318 66.0426 245.615 66.1222 245.976 66.1222ZM250.626 67V60.4545H251.858V61.4943H251.926C252.045 61.142 252.255 60.8651 252.556 60.6634C252.86 60.4588 253.204 60.3565 253.588 60.3565C253.667 60.3565 253.761 60.3594 253.869 60.3651C253.98 60.3707 254.066 60.3778 254.129 60.3864V61.6051C254.078 61.5909 253.987 61.5753 253.856 61.5582C253.725 61.5384 253.595 61.5284 253.464 61.5284C253.163 61.5284 252.895 61.5923 252.659 61.7202C252.426 61.8452 252.241 62.0199 252.105 62.2443C251.968 62.4659 251.9 62.7187 251.9 63.0028V67H250.626ZM257.754 67.1321C257.121 67.1321 256.575 66.9886 256.118 66.7017C255.663 66.4119 255.314 66.0128 255.07 65.5043C254.825 64.9957 254.703 64.4134 254.703 63.7571C254.703 63.0923 254.828 62.5057 255.078 61.9972C255.328 61.4858 255.68 61.0866 256.135 60.7997C256.589 60.5128 257.125 60.3693 257.741 60.3693C258.239 60.3693 258.682 60.4616 259.071 60.6463C259.46 60.8281 259.774 61.0838 260.013 61.4134C260.254 61.7429 260.398 62.1278 260.443 62.5682H259.203C259.135 62.2614 258.979 61.9972 258.734 61.7756C258.493 61.554 258.169 61.4432 257.763 61.4432C257.408 61.4432 257.097 61.5369 256.83 61.7244C256.565 61.9091 256.359 62.1733 256.212 62.517C256.064 62.858 255.99 63.2614 255.99 63.7273C255.99 64.2045 256.063 64.6165 256.207 64.9631C256.352 65.3097 256.557 65.5781 256.821 65.7685C257.088 65.9588 257.402 66.054 257.763 66.054C258.004 66.054 258.223 66.0099 258.419 65.9219C258.618 65.831 258.784 65.7017 258.918 65.5341C259.054 65.3665 259.149 65.1648 259.203 64.929H260.443C260.398 65.3523 260.26 65.7301 260.03 66.0625C259.8 66.3949 259.491 66.6562 259.105 66.8466C258.722 67.0369 258.271 67.1321 257.754 67.1321ZM263.08 63.1136V67H261.806V58.2727H263.063V61.5199H263.144C263.297 61.1676 263.532 60.8878 263.847 60.6804C264.162 60.473 264.574 60.3693 265.083 60.3693C265.532 60.3693 265.924 60.4616 266.259 60.6463C266.597 60.831 266.858 61.1065 267.043 61.473C267.23 61.8366 267.324 62.2912 267.324 62.8366V67H266.05V62.9901C266.05 62.5099 265.926 62.1378 265.679 61.8736C265.432 61.6065 265.088 61.473 264.648 61.473C264.347 61.473 264.077 61.5369 263.838 61.6648C263.603 61.7926 263.417 61.9801 263.28 62.2273C263.147 62.4716 263.08 62.767 263.08 63.1136Z" fill="url(#paint0_linear_0_1)"/>
<path d="M295.795 58.7292L292.966 61.5572L290.138 58.7292L289.195 59.6719L292.023 62.4999L289.195 65.3279L290.138 66.2706L292.966 63.4426L295.795 66.2706L296.737 65.3279L293.909 62.4999L296.737 59.6719L295.795 58.7292Z" fill="white"/>
<path fill-rule="evenodd" clip-rule="evenodd" d="M22.1573 55.4798C22.2455 55.5058 22.3381 55.4551 22.3642 55.3666C22.9207 53.4777 23.4733 51.6503 24.669 50.092C26.828 47.2781 30.0037 45.6052 33.4821 45.095C37.988 44.4342 42.9168 45.4172 47.1658 47.0161C47.2518 47.0485 47.3479 47.0047 47.3803 46.9182C47.4128 46.8318 47.3693 46.7355 47.2833 46.7032C43.004 45.0929 38.0158 44.0925 33.4346 44.7644C29.8822 45.2854 26.624 46.9968 24.4053 49.8885C23.166 51.5037 22.5991 53.3913 22.0449 55.2724C22.0188 55.361 22.0691 55.4538 22.1573 55.4798Z" fill="black"/>
<path fill-rule="evenodd" clip-rule="evenodd" d="M46.1768 47.2548C46.1892 47.3462 46.2731 47.4101 46.3642 47.3975C46.7747 47.3406 47.1906 47.3436 47.6135 47.3707C47.8253 47.3842 48.0345 47.4076 48.2433 47.4421C48.2666 47.446 48.2954 47.4523 48.3291 47.4598C48.3599 47.4666 48.3949 47.4743 48.4336 47.4819C48.4619 47.4874 48.5071 47.496 48.5421 47.4955C48.5502 47.4954 48.5749 47.495 48.6028 47.4853C48.6171 47.4803 48.6453 47.4686 48.6712 47.4414C48.7016 47.4095 48.7202 47.3648 48.7178 47.3161C48.7159 47.2743 48.6992 47.2444 48.6897 47.2299C48.6795 47.2143 48.6687 47.2033 48.6619 47.197C48.6485 47.1844 48.635 47.1754 48.6267 47.1701C48.5937 47.1492 48.5607 47.1283 48.5278 47.1075C48.099 46.836 47.6736 46.5667 47.27 46.2712C46.9754 46.0556 46.6971 45.8328 46.4863 45.5609C46.4299 45.4881 46.3254 45.4751 46.2527 45.5318C46.1801 45.5886 46.1669 45.6936 46.2233 45.7664C46.4645 46.0776 46.7754 46.3232 47.0734 46.5414C47.3164 46.7193 47.5668 46.8877 47.8188 47.0513C47.7578 47.0458 47.6967 47.0411 47.6354 47.0371C47.2014 47.0094 46.7608 47.0053 46.3194 47.0664C46.2283 47.079 46.1645 47.1634 46.1768 47.2548Z" fill="black"/>
<path fill-rule="evenodd" clip-rule="evenodd" d="M402.316 55.273C402.241 55.2502 402.156 55.3166 402.125 55.4213C401.481 57.6545 400.845 59.8162 399.668 61.7196C397.543 65.1566 394.621 67.3568 391.53 68.2357C387.526 69.3742 383.288 68.6442 379.696 67.1449C379.623 67.1145 379.536 67.1732 379.5 67.276C379.464 67.3787 379.495 67.4866 379.567 67.517C383.184 69.027 387.474 69.7721 391.544 68.6146C394.701 67.717 397.698 65.4655 399.883 61.9335C401.103 59.9605 401.756 57.7279 402.397 55.5038C402.428 55.3992 402.391 55.2958 402.316 55.273Z" fill="black"/>
<path fill-rule="evenodd" clip-rule="evenodd" d="M380.583 66.7869C380.579 66.682 380.511 66.615 380.43 66.6372C380.066 66.737 379.701 66.768 379.333 66.7717C379.149 66.7736 378.967 66.7638 378.787 66.7411C378.767 66.7386 378.742 66.7336 378.713 66.7278C378.687 66.7225 378.657 66.7164 378.623 66.7109C378.599 66.7068 378.56 66.7006 378.529 66.7041C378.522 66.7049 378.501 66.7074 378.475 66.7209C378.462 66.7278 378.437 66.7438 378.412 66.7774C378.383 66.8169 378.363 66.8702 378.361 66.9264C378.359 66.9746 378.371 67.0079 378.378 67.0238C378.386 67.0411 378.394 67.0529 378.4 67.0596C378.41 67.0731 378.422 67.0824 378.428 67.0878C378.456 67.1093 378.483 67.1308 378.51 67.1522C378.863 67.431 379.214 67.7076 379.543 68.0163C379.783 68.2415 380.009 68.4764 380.171 68.7739C380.214 68.8535 380.305 68.8599 380.373 68.7881C380.442 68.7164 380.462 68.5937 380.419 68.5141C380.233 68.1737 379.981 67.9151 379.738 67.6872C379.539 67.5013 379.334 67.327 379.127 67.1585C379.18 67.1599 379.233 67.1602 379.286 67.1597C379.664 67.1558 380.05 67.1241 380.442 67.0168C380.523 66.9946 380.586 66.8917 380.583 66.7869Z" fill="black"/>
<path d="M4.08052 70L5.16717 63.4545H9.22612L9.08549 64.3047H6.01412L5.68173 66.299H8.46227L8.32164 67.146H5.5411L5.06809 70H4.08052ZM9.27725 70L10.0954 65.0909H11.051L10.2329 70H9.27725ZM10.773 64.3239C10.6068 64.3239 10.4662 64.2685 10.3511 64.1577C10.2382 64.0447 10.186 63.9105 10.1945 63.755C10.203 63.5973 10.2691 63.4631 10.3927 63.3523C10.5162 63.2393 10.6601 63.1829 10.8241 63.1829C10.9903 63.1829 11.1299 63.2393 11.2428 63.3523C11.3557 63.4631 11.409 63.5973 11.4026 63.755C11.3941 63.9105 11.328 64.0447 11.2045 64.1577C11.083 64.2685 10.9392 64.3239 10.773 64.3239ZM12.9567 67.0852L12.4773 70H11.5217L12.3398 65.0909H13.2571L13.1229 65.8899H13.1836C13.3391 65.6278 13.5511 65.419 13.8196 65.2635C14.0902 65.1058 14.4098 65.027 14.7784 65.027C15.1108 65.027 15.3899 65.0973 15.6158 65.2379C15.8438 65.3764 16.0046 65.5831 16.0984 65.858C16.1942 66.1328 16.2092 66.4727 16.1431 66.8775L15.619 70H14.6634L15.1651 66.9925C15.2227 66.6367 15.1758 66.3587 15.0245 66.1584C14.8754 65.956 14.6378 65.8548 14.3118 65.8548C14.0902 65.8548 13.8846 65.9027 13.695 65.9986C13.5075 66.0945 13.3487 66.2351 13.2188 66.4205C13.0909 66.6037 13.0036 66.8253 12.9567 67.0852ZM18.7287 70.0959C18.3303 70.0959 17.9925 69.9947 17.7156 69.7923C17.4407 69.5877 17.2457 69.2969 17.1307 68.9197C17.0178 68.5405 17.005 68.0856 17.0923 67.555C17.1818 67.0245 17.3469 66.5707 17.5877 66.1935C17.8285 65.8164 18.1204 65.5277 18.4634 65.3274C18.8065 65.1271 19.1761 65.027 19.5724 65.027C19.8771 65.027 20.1136 65.0781 20.282 65.1804C20.4524 65.2805 20.5781 65.3977 20.6591 65.532C20.7401 65.6662 20.8008 65.7844 20.8413 65.8867H20.8956L21.3015 63.4545H22.2571L21.1705 70H20.2372L20.3683 69.2362H20.2884C20.2138 69.3406 20.1104 69.4599 19.9783 69.5941C19.8484 69.7283 19.6822 69.8455 19.4798 69.9457C19.2773 70.0458 19.027 70.0959 18.7287 70.0959ZM19.0515 69.2809C19.3263 69.2809 19.5724 69.2085 19.7898 69.0636C20.0092 68.9165 20.1914 68.7131 20.3363 68.4531C20.4833 68.1932 20.5856 67.8906 20.6431 67.5455C20.7006 67.2045 20.6996 66.9062 20.6399 66.6506C20.5803 66.3949 20.4652 66.1957 20.2947 66.0529C20.1243 65.9102 19.8995 65.8388 19.6204 65.8388C19.3327 65.8388 19.0824 65.9134 18.8693 66.0625C18.6563 66.2116 18.4815 66.4151 18.3452 66.6729C18.2109 66.9308 18.1172 67.2216 18.0639 67.5455C18.0085 67.8736 18.0064 68.1687 18.0575 68.4308C18.1087 68.6928 18.2163 68.9006 18.3803 69.054C18.5444 69.2053 18.7681 69.2809 19.0515 69.2809ZM28.0227 65.0909L27.8981 65.858H25.2166L25.3413 65.0909H28.0227ZM26.2521 63.9148H27.2077L26.4343 68.5586C26.4045 68.744 26.4098 68.8835 26.4503 68.9773C26.4908 69.0689 26.5526 69.1317 26.6357 69.1658C26.7209 69.1978 26.8157 69.2138 26.9201 69.2138C26.9968 69.2138 27.0639 69.2085 27.1214 69.1978C27.179 69.1871 27.2248 69.1786 27.2589 69.1722L27.31 69.9616C27.2461 69.983 27.1598 70.0043 27.0511 70.0256C26.9446 70.049 26.8146 70.0618 26.6612 70.0639C26.4098 70.0682 26.1829 70.0234 25.9805 69.9297C25.7781 69.8338 25.6268 69.6889 25.5266 69.495C25.4265 69.299 25.402 69.0529 25.4531 68.7567L26.2521 63.9148ZM29.8053 67.0852L29.3259 70H28.3703L29.4569 63.4545H30.3998L29.9971 65.8899H30.0578C30.2133 65.6236 30.4221 65.4137 30.6842 65.2603C30.9484 65.1048 31.2723 65.027 31.6558 65.027C31.9925 65.027 32.2748 65.0962 32.5028 65.2347C32.7329 65.3732 32.8948 65.5799 32.9885 65.8548C33.0844 66.1275 33.0993 66.4684 33.0333 66.8775L32.5091 70H31.5535L32.0521 66.9925C32.1118 66.6325 32.0649 66.3533 31.9115 66.1552C31.7581 65.9549 31.5184 65.8548 31.1924 65.8548C30.9644 65.8548 30.7535 65.9027 30.5596 65.9986C30.3678 66.0945 30.2059 66.2351 30.0738 66.4205C29.9417 66.6037 29.8522 66.8253 29.8053 67.0852ZM35.8841 70.0991C35.4026 70.0991 35.0042 69.9957 34.6888 69.7891C34.3756 69.5803 34.1562 69.2873 34.0305 68.9102C33.9047 68.5309 33.8845 68.0866 33.9697 67.5774C34.0528 67.0746 34.2201 66.6314 34.4715 66.2479C34.7229 65.8643 35.0361 65.565 35.4111 65.3498C35.7883 65.1346 36.2048 65.027 36.6608 65.027C36.9378 65.027 37.1988 65.0728 37.4438 65.1644C37.691 65.256 37.9008 65.3999 38.0734 65.5959C38.246 65.7919 38.3653 66.0465 38.4314 66.3597C38.4996 66.6708 38.4974 67.049 38.425 67.4943L38.3707 67.8331H34.4651L34.577 67.1172H37.5429C37.5876 66.8658 37.5759 66.6431 37.5077 66.4492C37.4395 66.2532 37.3224 66.0987 37.1562 65.9858C36.9921 65.8729 36.7854 65.8164 36.5361 65.8164C36.2805 65.8164 36.0418 65.8835 35.8202 66.0178C35.5986 66.152 35.4133 66.3235 35.2641 66.5323C35.1171 66.739 35.0244 66.9521 34.9861 67.1715L34.8742 67.8267C34.8188 68.1847 34.8284 68.4723 34.903 68.6896C34.9797 68.907 35.1139 69.0646 35.3057 69.1626C35.4974 69.2607 35.7371 69.3097 36.0248 69.3097C36.2101 69.3097 36.3817 69.2841 36.5393 69.233C36.6991 69.1797 36.8408 69.1019 36.9644 68.9996C37.088 68.8952 37.1913 68.7653 37.2744 68.6097L38.1501 68.7727C38.0329 69.0391 37.8646 69.2724 37.6452 69.4727C37.4257 69.6708 37.1668 69.8253 36.8685 69.9361C36.5724 70.0447 36.2442 70.0991 35.8841 70.0991ZM2.06703 76.0852L1.58762 79H0.632014L1.4502 74.0909H2.36745L2.23322 74.8899H2.29395C2.44949 74.6278 2.66149 74.419 2.92995 74.2635C3.20055 74.1058 3.52015 74.027 3.88876 74.027C4.22115 74.027 4.50027 74.0973 4.72612 74.2379C4.9541 74.3764 5.11497 74.5831 5.20872 74.858C5.3046 75.1328 5.31951 75.4727 5.25346 75.8775L4.72931 79H3.7737L4.27548 75.9925C4.33301 75.6367 4.28613 75.3587 4.13485 75.1584C3.98571 74.956 3.74814 74.8548 3.42214 74.8548C3.20055 74.8548 2.99494 74.9027 2.80531 74.9986C2.61781 75.0945 2.45907 75.2351 2.3291 75.4205C2.20126 75.6037 2.1139 75.8253 2.06703 76.0852ZM8.11071 79.0991C7.62917 79.0991 7.23074 78.9957 6.91539 78.7891C6.60218 78.5803 6.38272 78.2873 6.25701 77.9102C6.1313 77.5309 6.11106 77.0866 6.19629 76.5774C6.27939 76.0746 6.44664 75.6314 6.69806 75.2479C6.94949 74.8643 7.2627 74.565 7.6377 74.3498C8.01483 74.1346 8.43137 74.027 8.88734 74.027C9.16433 74.027 9.42534 74.0728 9.67037 74.1644C9.91752 74.256 10.1274 74.3999 10.3 74.5959C10.4726 74.7919 10.5919 75.0465 10.6579 75.3597C10.7261 75.6708 10.724 76.049 10.6515 76.4943L10.5972 76.8331H6.69167L6.80353 76.1172H9.76944C9.81419 75.8658 9.80247 75.6431 9.73429 75.4492C9.6661 75.2532 9.54892 75.0987 9.38272 74.9858C9.21866 74.8729 9.01199 74.8164 8.7627 74.8164C8.50701 74.8164 8.26838 74.8835 8.04679 75.0178C7.8252 75.152 7.63983 75.3235 7.49068 75.5323C7.34366 75.739 7.25098 75.9521 7.21262 76.1715L7.10076 76.8267C7.04537 77.1847 7.05495 77.4723 7.12953 77.6896C7.20623 77.907 7.34047 78.0646 7.53223 78.1626C7.72399 78.2607 7.96369 78.3097 8.25133 78.3097C8.4367 78.3097 8.60822 78.2841 8.76589 78.233C8.92569 78.1797 9.06738 78.1019 9.19096 77.9996C9.31454 77.8952 9.41788 77.7653 9.50098 77.6097L10.3767 77.7727C10.2595 78.0391 10.0912 78.2724 9.87172 78.4727C9.65226 78.6708 9.39338 78.8253 9.09508 78.9361C8.79892 79.0447 8.47079 79.0991 8.11071 79.0991ZM12.7657 74.0909L13.5328 76.0021L14.9422 74.0909H15.9873L14.0473 76.5455L15.1819 79H14.1368L13.3378 77.1655L11.9284 79H10.8801L12.8169 76.5455L11.7174 74.0909H12.7657ZM19.26 74.0909L19.1354 74.858H16.4539L16.5786 74.0909H19.26ZM17.4894 72.9148H18.445L17.6716 77.5586C17.6418 77.744 17.6471 77.8835 17.6876 77.9773C17.7281 78.0689 17.7899 78.1317 17.873 78.1658C17.9582 78.1978 18.053 78.2138 18.1574 78.2138C18.2341 78.2138 18.3012 78.2085 18.3588 78.1978C18.4163 78.1871 18.4621 78.1786 18.4962 78.1722L18.5473 78.9616C18.4834 78.983 18.3971 79.0043 18.2884 79.0256C18.1819 79.049 18.0519 79.0618 17.8985 79.0639C17.6471 79.0682 17.4202 79.0234 17.2178 78.9297C17.0154 78.8338 16.8641 78.6889 16.7639 78.495C16.6638 78.299 16.6393 78.0529 16.6904 77.7567L17.4894 72.9148ZM24.9905 74.0909L24.8659 74.858H22.1844L22.309 74.0909H24.9905ZM23.2199 72.9148H24.1755L23.4021 77.5586C23.3722 77.744 23.3776 77.8835 23.4181 77.9773C23.4585 78.0689 23.5203 78.1317 23.6034 78.1658C23.6887 78.1978 23.7835 78.2138 23.8879 78.2138C23.9646 78.2138 24.0317 78.2085 24.0892 78.1978C24.1468 78.1871 24.1926 78.1786 24.2267 78.1722L24.2778 78.9616C24.2139 78.983 24.1276 79.0043 24.0189 79.0256C23.9124 79.049 23.7824 79.0618 23.629 79.0639C23.3776 79.0682 23.1507 79.0234 22.9482 78.9297C22.7458 78.8338 22.5945 78.6889 22.4944 78.495C22.3943 78.299 22.3698 78.0529 22.4209 77.7567L23.2199 72.9148ZM25.2294 79L26.0476 74.0909H26.9712L26.8402 74.8707H26.8913C27.0234 74.6065 27.2163 74.3988 27.4698 74.2475C27.7234 74.0941 27.994 74.0174 28.2816 74.0174C28.3434 74.0174 28.4137 74.0195 28.4925 74.0238C28.5714 74.0259 28.6353 74.0312 28.6843 74.0398L28.5309 74.9538C28.4947 74.9432 28.4286 74.9315 28.3327 74.9187C28.2369 74.9038 28.1378 74.8963 28.0355 74.8963C27.8118 74.8963 27.604 74.9442 27.4123 75.0401C27.2205 75.1339 27.0597 75.2649 26.9297 75.4332C26.7997 75.5994 26.7156 75.7891 26.6772 76.0021L26.185 79H25.2294ZM30.6283 79.0991C30.1468 79.0991 29.7483 78.9957 29.433 78.7891C29.1198 78.5803 28.9003 78.2873 28.7746 77.9102C28.6489 77.5309 28.6286 77.0866 28.7139 76.5774C28.797 76.0746 28.9642 75.6314 29.2156 75.2479C29.4671 74.8643 29.7803 74.565 30.1553 74.3498C30.5324 74.1346 30.949 74.027 31.4049 74.027C31.6819 74.027 31.9429 74.0728 32.1879 74.1644C32.4351 74.256 32.645 74.3999 32.8176 74.5959C32.9901 74.7919 33.1095 75.0465 33.1755 75.3597C33.2437 75.6708 33.2416 76.049 33.1691 76.4943L33.1148 76.8331H29.2093L29.3211 76.1172H32.287C32.3318 75.8658 32.32 75.6431 32.2519 75.4492C32.1837 75.2532 32.0665 75.0987 31.9003 74.9858C31.7362 74.8729 31.5296 74.8164 31.2803 74.8164C31.0246 74.8164 30.786 74.8835 30.5644 75.0178C30.3428 75.152 30.1574 75.3235 30.0083 75.5323C29.8612 75.739 29.7686 75.9521 29.7302 76.1715L29.6183 76.8267C29.5629 77.1847 29.5725 77.4723 29.6471 77.6896C29.7238 77.907 29.858 78.0646 30.0498 78.1626C30.2416 78.2607 30.4813 78.3097 30.7689 78.3097C30.9543 78.3097 31.1258 78.2841 31.2835 78.233C31.4433 78.1797 31.585 78.1019 31.7085 77.9996C31.8321 77.8952 31.9355 77.7653 32.0186 77.6097L32.8943 77.7727C32.7771 78.0391 32.6088 78.2724 32.3893 78.4727C32.1698 78.6708 31.911 78.8253 31.6127 78.9361C31.3165 79.0447 30.9884 79.0991 30.6283 79.0991ZM35.2633 76.0852L34.7839 79H33.8283L34.6465 74.0909H35.5637L35.4295 74.8899H35.4902C35.6458 74.6278 35.8578 74.419 36.1262 74.2635C36.3968 74.1058 36.7164 74.027 37.085 74.027C37.4174 74.027 37.6966 74.0973 37.9224 74.2379C38.1504 74.3764 38.3113 74.5831 38.405 74.858C38.5009 75.1328 38.5158 75.4727 38.4498 75.8775L37.9256 79H36.97L37.4718 75.9925C37.5293 75.6367 37.4824 75.3587 37.3311 75.1584C37.182 74.956 36.9444 74.8548 36.6184 74.8548C36.3968 74.8548 36.1912 74.9027 36.0016 74.9986C35.8141 75.0945 35.6554 75.2351 35.5254 75.4205C35.3975 75.6037 35.3102 75.8253 35.2633 76.0852ZM41.0353 79.0959C40.6369 79.0959 40.2992 78.9947 40.0222 78.7923C39.7473 78.5877 39.5524 78.2969 39.4373 77.9197C39.3244 77.5405 39.3116 77.0856 39.399 76.555C39.4885 76.0245 39.6536 75.5707 39.8944 75.1935C40.1351 74.8164 40.427 74.5277 40.7701 74.3274C41.1131 74.1271 41.4828 74.027 41.8791 74.027C42.1838 74.027 42.4203 74.0781 42.5886 74.1804C42.7591 74.2805 42.8848 74.3977 42.9657 74.532C43.0467 74.6662 43.1074 74.7844 43.1479 74.8867H43.2022L43.6081 72.4545H44.5637L43.4771 79H42.5439L42.6749 78.2362H42.595C42.5204 78.3406 42.4171 78.4599 42.285 78.5941C42.155 78.7283 41.9888 78.8455 41.7864 78.9457C41.584 79.0458 41.3336 79.0959 41.0353 79.0959ZM41.3581 78.2809C41.633 78.2809 41.8791 78.2085 42.0964 78.0636C42.3159 77.9165 42.498 77.7131 42.6429 77.4531C42.79 77.1932 42.8922 76.8906 42.9498 76.5455C43.0073 76.2045 43.0062 75.9062 42.9466 75.6506C42.8869 75.3949 42.7718 75.1957 42.6014 75.0529C42.4309 74.9102 42.2061 74.8388 41.927 74.8388C41.6394 74.8388 41.389 74.9134 41.176 75.0625C40.9629 75.2116 40.7882 75.4151 40.6518 75.6729C40.5176 75.9308 40.4238 76.2216 40.3706 76.5455C40.3152 76.8736 40.313 77.1687 40.3642 77.4308C40.4153 77.6928 40.5229 77.9006 40.687 78.054C40.851 78.2053 41.0748 78.2809 41.3581 78.2809Z" fill="black"/>
<path d="M396.043 37L395.314 30.4545H396.353L396.787 35.5234H396.848L399.015 30.4545H400.044L400.53 35.5266H400.594L402.703 30.4545H403.745L400.84 37H399.846L399.287 32.0973H399.236L397.04 37H396.043ZM405.102 37.0991C404.62 37.0991 404.222 36.9957 403.907 36.7891C403.593 36.5803 403.374 36.2873 403.248 35.9102C403.123 35.5309 403.102 35.0866 403.188 34.5774C403.271 34.0746 403.438 33.6314 403.689 33.2479C403.941 32.8643 404.254 32.565 404.629 32.3498C405.006 32.1346 405.423 32.027 405.879 32.027C406.156 32.027 406.417 32.0728 406.662 32.1644C406.909 32.256 407.119 32.3999 407.291 32.5959C407.464 32.7919 407.583 33.0465 407.649 33.3597C407.717 33.6708 407.715 34.049 407.643 34.4943L407.588 34.8331H403.683L403.795 34.1172H406.761C406.805 33.8658 406.794 33.6431 406.725 33.4492C406.657 33.2532 406.54 33.0987 406.374 32.9858C406.21 32.8729 406.003 32.8164 405.754 32.8164C405.498 32.8164 405.26 32.8835 405.038 33.0178C404.816 33.152 404.631 33.3235 404.482 33.5323C404.335 33.739 404.242 33.9521 404.204 34.1715L404.092 34.8267C404.037 35.1847 404.046 35.4723 404.121 35.6896C404.197 35.907 404.332 36.0646 404.523 36.1626C404.715 36.2607 404.955 36.3097 405.243 36.3097C405.428 36.3097 405.599 36.2841 405.757 36.233C405.917 36.1797 406.059 36.1019 406.182 35.9996C406.306 35.8952 406.409 35.7653 406.492 35.6097L407.368 35.7727C407.251 36.0391 407.082 36.2724 406.863 36.4727C406.643 36.6708 406.385 36.8253 406.086 36.9361C405.79 37.0447 405.462 37.0991 405.102 37.0991ZM412.096 37.1087C411.785 37.1087 411.514 37.0511 411.281 36.9361C411.049 36.8189 410.878 36.6495 410.767 36.4279C410.656 36.2063 410.627 35.9347 410.681 35.6129C410.727 35.3359 410.819 35.108 410.955 34.929C411.094 34.75 411.262 34.6083 411.46 34.5039C411.659 34.3974 411.874 34.3175 412.106 34.2642C412.338 34.2109 412.573 34.1715 412.809 34.146C413.107 34.1119 413.349 34.0831 413.535 34.0597C413.722 34.0362 413.863 34 413.956 33.951C414.05 33.8999 414.107 33.8168 414.126 33.7017V33.6793C414.171 33.4023 414.13 33.1871 414.004 33.0337C413.881 32.8782 413.666 32.8004 413.359 32.8004C413.039 32.8004 412.771 32.8707 412.553 33.0114C412.338 33.152 412.18 33.3097 412.077 33.4844L411.221 33.2798C411.374 32.9815 411.569 32.7408 411.806 32.5575C412.044 32.3722 412.305 32.2379 412.589 32.1548C412.872 32.0696 413.162 32.027 413.458 32.027C413.654 32.027 413.857 32.0504 414.068 32.0973C414.279 32.142 414.471 32.2251 414.644 32.3466C414.818 32.468 414.948 32.6417 415.034 32.8675C415.119 33.0913 415.132 33.3821 415.072 33.7401L414.532 37H413.599L413.714 36.3288H413.675C413.594 36.4524 413.481 36.5739 413.336 36.6932C413.194 36.8125 413.019 36.9116 412.812 36.9904C412.606 37.0692 412.367 37.1087 412.096 37.1087ZM412.422 36.3416C412.689 36.3416 412.924 36.2894 413.129 36.185C413.335 36.0806 413.503 35.9442 413.631 35.7759C413.758 35.6055 413.838 35.4233 413.87 35.2294L413.976 34.5966C413.935 34.6307 413.864 34.6616 413.762 34.6893C413.661 34.717 413.548 34.7415 413.423 34.7628C413.297 34.7841 413.173 34.8022 413.052 34.8171C412.933 34.832 412.834 34.8459 412.755 34.8587C412.567 34.8821 412.392 34.9215 412.227 34.9769C412.066 35.0323 411.93 35.1122 411.822 35.2166C411.713 35.3189 411.645 35.4553 411.617 35.6257C411.579 35.8622 411.635 36.0412 411.786 36.1626C411.94 36.282 412.152 36.3416 412.422 36.3416ZM415.805 37L416.623 32.0909H417.546L417.415 32.8707H417.467C417.599 32.6065 417.791 32.3988 418.045 32.2475C418.299 32.0941 418.569 32.0174 418.857 32.0174C418.919 32.0174 418.989 32.0195 419.068 32.0238C419.147 32.0259 419.21 32.0312 419.259 32.0398L419.106 32.9538C419.07 32.9432 419.004 32.9315 418.908 32.9187C418.812 32.9038 418.713 32.8963 418.611 32.8963C418.387 32.8963 418.179 32.9442 417.987 33.0401C417.796 33.1339 417.635 33.2649 417.505 33.4332C417.375 33.5994 417.291 33.7891 417.252 34.0021L416.76 37H415.805ZM421.203 37.0991C420.722 37.0991 420.324 36.9957 420.008 36.7891C419.695 36.5803 419.475 36.2873 419.35 35.9102C419.224 35.5309 419.204 35.0866 419.289 34.5774C419.372 34.0746 419.539 33.6314 419.791 33.2479C420.042 32.8643 420.355 32.565 420.73 32.3498C421.108 32.1346 421.524 32.027 421.98 32.027C422.257 32.027 422.518 32.0728 422.763 32.1644C423.01 32.256 423.22 32.3999 423.393 32.5959C423.565 32.7919 423.685 33.0465 423.751 33.3597C423.819 33.6708 423.817 34.049 423.744 34.4943L423.69 34.8331H419.784L419.896 34.1172H422.862C422.907 33.8658 422.895 33.6431 422.827 33.4492C422.759 33.2532 422.642 33.0987 422.475 32.9858C422.311 32.8729 422.105 32.8164 421.855 32.8164C421.6 32.8164 421.361 32.8835 421.14 33.0178C420.918 33.152 420.733 33.3235 420.583 33.5323C420.436 33.739 420.344 33.9521 420.305 34.1715L420.194 34.8267C420.138 35.1847 420.148 35.4723 420.222 35.6896C420.299 35.907 420.433 36.0646 420.625 36.1626C420.817 36.2607 421.056 36.3097 421.344 36.3097C421.529 36.3097 421.701 36.2841 421.859 36.233C422.018 36.1797 422.16 36.1019 422.284 35.9996C422.407 35.8952 422.511 35.7653 422.594 35.6097L423.469 35.7727C423.352 36.0391 423.184 36.2724 422.964 36.4727C422.745 36.6708 422.486 36.8253 422.188 36.9361C421.892 37.0447 421.564 37.0991 421.203 37.0991ZM392.582 41.0909L392.458 41.858H389.776L389.901 41.0909H392.582ZM390.812 39.9148H391.767L390.994 44.5586C390.964 44.744 390.969 44.8835 391.01 44.9773C391.05 45.0689 391.112 45.1317 391.195 45.1658C391.28 45.1978 391.375 45.2138 391.48 45.2138C391.556 45.2138 391.623 45.2085 391.681 45.1978C391.739 45.1871 391.784 45.1786 391.818 45.1722L391.87 45.9616C391.806 45.983 391.719 46.0043 391.611 46.0256C391.504 46.049 391.374 46.0618 391.221 46.0639C390.969 46.0682 390.742 46.0234 390.54 45.9297C390.338 45.8338 390.186 45.6889 390.086 45.495C389.986 45.299 389.962 45.0529 390.013 44.7567L390.812 39.9148ZM394.365 43.0852L393.885 46H392.93L394.017 39.4545H394.959L394.557 41.8899H394.617C394.773 41.6236 394.982 41.4137 395.244 41.2603C395.508 41.1048 395.832 41.027 396.215 41.027C396.552 41.027 396.834 41.0962 397.062 41.2347C397.292 41.3732 397.454 41.5799 397.548 41.8548C397.644 42.1275 397.659 42.4684 397.593 42.8775L397.069 46H396.113L396.612 42.9925C396.671 42.6325 396.624 42.3533 396.471 42.1552C396.318 41.9549 396.078 41.8548 395.752 41.8548C395.524 41.8548 395.313 41.9027 395.119 41.9986C394.927 42.0945 394.765 42.2351 394.633 42.4205C394.501 42.6037 394.412 42.8253 394.365 43.0852ZM400.444 46.0991C399.962 46.0991 399.564 45.9957 399.248 45.7891C398.935 45.5803 398.716 45.2873 398.59 44.9102C398.464 44.5309 398.444 44.0866 398.529 43.5774C398.612 43.0746 398.78 42.6314 399.031 42.2479C399.282 41.8643 399.596 41.565 399.971 41.3498C400.348 41.1346 400.764 41.027 401.22 41.027C401.497 41.027 401.758 41.0728 402.003 41.1644C402.251 41.256 402.46 41.3999 402.633 41.5959C402.806 41.7919 402.925 42.0465 402.991 42.3597C403.059 42.6708 403.057 43.049 402.985 43.4943L402.93 43.8331H399.025L399.137 43.1172H402.102C402.147 42.8658 402.135 42.6431 402.067 42.4492C401.999 42.2532 401.882 42.0987 401.716 41.9858C401.552 41.8729 401.345 41.8164 401.096 41.8164C400.84 41.8164 400.601 41.8835 400.38 42.0178C400.158 42.152 399.973 42.3235 399.824 42.5323C399.677 42.739 399.584 42.9521 399.546 43.1715L399.434 43.8267C399.378 44.1847 399.388 44.4723 399.463 44.6896C399.539 44.907 399.673 45.0646 399.865 45.1626C400.057 45.2607 400.297 45.3097 400.584 45.3097C400.77 45.3097 400.941 45.2841 401.099 45.233C401.259 45.1797 401.4 45.1019 401.524 44.9996C401.648 44.8952 401.751 44.7653 401.834 44.6097L402.71 44.7727C402.593 45.0391 402.424 45.2724 402.205 45.4727C401.985 45.6708 401.726 45.8253 401.428 45.9361C401.132 46.0447 400.804 46.0991 400.444 46.0991ZM409.177 41.0909L409.052 41.858H406.278L406.403 41.0909H409.177ZM406.345 46L407.259 40.522C407.306 40.2152 407.414 39.9606 407.582 39.7582C407.75 39.5536 407.954 39.4013 408.192 39.3011C408.431 39.1989 408.68 39.1477 408.94 39.1477C409.132 39.1477 409.293 39.1637 409.423 39.1957C409.555 39.2255 409.651 39.2532 409.711 39.2788L409.362 40.0522C409.32 40.0394 409.265 40.0245 409.199 40.0075C409.133 39.9883 409.05 39.9787 408.95 39.9787C408.718 39.9787 408.542 40.0362 408.423 40.1513C408.305 40.2663 408.227 40.4325 408.186 40.6499L407.301 46H406.345ZM412.793 43.9641L413.273 41.0909H414.231L413.413 46H412.474L412.617 45.1499H412.566C412.413 45.4119 412.195 45.6303 411.914 45.805C411.635 45.9776 411.311 46.0639 410.943 46.0639C410.627 46.0639 410.36 45.9947 410.14 45.8562C409.923 45.7156 409.769 45.5078 409.677 45.233C409.585 44.9581 409.573 44.6183 409.639 44.2134L410.163 41.0909H411.118L410.617 44.0984C410.563 44.4329 410.613 44.6992 410.767 44.8974C410.92 45.0955 411.144 45.1946 411.438 45.1946C411.617 45.1946 411.802 45.1499 411.994 45.0604C412.186 44.9709 412.355 44.8356 412.502 44.6545C412.651 44.4734 412.748 44.2433 412.793 43.9641ZM417.807 41.0909L417.682 41.858H415.001L415.125 41.0909H417.807ZM416.036 39.9148H416.992L416.218 44.5586C416.189 44.744 416.194 44.8835 416.234 44.9773C416.275 45.0689 416.337 45.1317 416.42 45.1658C416.505 45.1978 416.6 45.2138 416.704 45.2138C416.781 45.2138 416.848 45.2085 416.906 45.1978C416.963 45.1871 417.009 45.1786 417.043 45.1722L417.094 45.9616C417.03 45.983 416.944 46.0043 416.835 46.0256C416.729 46.049 416.599 46.0618 416.445 46.0639C416.194 46.0682 415.967 46.0234 415.765 45.9297C415.562 45.8338 415.411 45.6889 415.311 45.495C415.211 45.299 415.186 45.0529 415.237 44.7567L416.036 39.9148ZM421.494 43.9641L421.974 41.0909H422.933L422.114 46H421.175L421.319 45.1499H421.267C421.114 45.4119 420.897 45.6303 420.615 45.805C420.336 45.9776 420.012 46.0639 419.644 46.0639C419.328 46.0639 419.061 45.9947 418.842 45.8562C418.624 45.7156 418.47 45.5078 418.378 45.233C418.287 44.9581 418.274 44.6183 418.34 44.2134L418.864 41.0909H419.82L419.318 44.0984C419.265 44.4329 419.315 44.6992 419.468 44.8974C419.621 45.0955 419.845 45.1946 420.139 45.1946C420.318 45.1946 420.504 45.1499 420.695 45.0604C420.887 44.9709 421.056 44.8356 421.203 44.6545C421.353 44.4734 421.45 44.2433 421.494 43.9641ZM423.398 46L424.217 41.0909H425.14L425.009 41.8707H425.06C425.192 41.6065 425.385 41.3988 425.639 41.2475C425.892 41.0941 426.163 41.0174 426.451 41.0174C426.512 41.0174 426.583 41.0195 426.661 41.0238C426.74 41.0259 426.804 41.0312 426.853 41.0398L426.7 41.9538C426.664 41.9432 426.598 41.9315 426.502 41.9187C426.406 41.9038 426.307 41.8963 426.204 41.8963C425.981 41.8963 425.773 41.9442 425.581 42.0401C425.389 42.1339 425.229 42.2649 425.099 42.4332C424.969 42.5994 424.884 42.7891 424.846 43.0021L424.354 46H423.398ZM428.797 46.0991C428.316 46.0991 427.917 45.9957 427.602 45.7891C427.289 45.5803 427.069 45.2873 426.944 44.9102C426.818 44.5309 426.798 44.0866 426.883 43.5774C426.966 43.0746 427.133 42.6314 427.385 42.2479C427.636 41.8643 427.949 41.565 428.324 41.3498C428.701 41.1346 429.118 41.027 429.574 41.027C429.851 41.027 430.112 41.0728 430.357 41.1644C430.604 41.256 430.814 41.3999 430.987 41.5959C431.159 41.7919 431.278 42.0465 431.344 42.3597C431.413 42.6708 431.411 43.049 431.338 43.4943L431.284 43.8331H427.378L427.49 43.1172H430.456C430.501 42.8658 430.489 42.6431 430.421 42.4492C430.353 42.2532 430.235 42.0987 430.069 41.9858C429.905 41.8729 429.699 41.8164 429.449 41.8164C429.194 41.8164 428.955 41.8835 428.733 42.0178C428.512 42.152 428.326 42.3235 428.177 42.5323C428.03 42.739 427.938 42.9521 427.899 43.1715L427.787 43.8267C427.732 44.1847 427.741 44.4723 427.816 44.6896C427.893 44.907 428.027 45.0646 428.219 45.1626C428.411 45.2607 428.65 45.3097 428.938 45.3097C429.123 45.3097 429.295 45.2841 429.452 45.233C429.612 45.1797 429.754 45.1019 429.877 44.9996C430.001 44.8952 430.104 44.7653 430.188 44.6097L431.063 44.7727C430.946 45.0391 430.778 45.2724 430.558 45.4727C430.339 45.6708 430.08 45.8253 429.782 45.9361C429.485 46.0447 429.157 46.0991 428.797 46.0991Z" fill="black"/>
<defs>
<linearGradient id="paint0_linear_0_1" x1="215" y1="55" x2="275.69" y2="64.9393" gradientUnits="userSpaceOnUse">
<stop stop-color="white"/>
<stop offset="1" stop-color="#1C1C1C" stop-opacity="0"/>
</linearGradient>
</defs>
</svg>
