<svg width="28" height="28" viewBox="0 0 28 28" fill="none" xmlns="http://www.w3.org/2000/svg">
<circle cx="14" cy="14" r="14" fill="#A8FF35"/>
<path d="M20.6092 14.3432C20.5798 14.1965 20.5093 14.0612 20.4058 13.9531C20.3023 13.845 20.1702 13.7686 20.0249 13.7328L14.5941 12.3743L16.6025 7.68688C16.6725 7.52422 16.6858 7.34276 16.6403 7.17164C16.5948 7.00051 16.4931 6.84963 16.3516 6.74321C16.2103 6.6361 16.0371 6.57971 15.8598 6.58316C15.6826 6.5866 15.5117 6.64968 15.3747 6.76221L6.66633 13.8872C6.55274 13.9801 6.46722 14.1028 6.4193 14.2415C6.37139 14.3802 6.36298 14.5295 6.39501 14.6727C6.42703 14.816 6.49824 14.9475 6.60067 15.0526C6.7031 15.1576 6.83273 15.2322 6.97508 15.2679L12.2943 16.5987L9.64617 21.2331C9.57785 21.3535 9.54226 21.4897 9.54295 21.6281C9.54364 21.7665 9.58057 21.9024 9.65008 22.0221C9.71958 22.1418 9.81923 22.2412 9.93911 22.3104C10.059 22.3797 10.1949 22.4163 10.3333 22.4166C10.5047 22.4169 10.6714 22.3613 10.8083 22.2583L20.3083 15.1333C20.428 15.0435 20.5198 14.9216 20.573 14.7818C20.6263 14.6419 20.6388 14.4899 20.6092 14.3432Z" fill="black"/>
</svg>
