<svg width="109" height="28" viewBox="0 0 109 28" fill="none" xmlns="http://www.w3.org/2000/svg">
<circle cx="14" cy="14" r="14" fill="#A8FF35"/>
<path d="M35.0114 20V8.36364H42.7159V10.392H37.4716V13.1648H42.2045V15.1932H37.4716V20H35.0114ZM44.3253 20V11.2727H46.7457V20H44.3253ZM45.5412 10.1477C45.1813 10.1477 44.8726 10.0284 44.6151 9.78977C44.3613 9.54735 44.2344 9.25758 44.2344 8.92045C44.2344 8.58712 44.3613 8.30114 44.6151 8.0625C44.8726 7.82008 45.1813 7.69886 45.5412 7.69886C45.901 7.69886 46.2079 7.82008 46.4616 8.0625C46.7192 8.30114 46.848 8.58712 46.848 8.92045C46.848 9.25758 46.7192 9.54735 46.4616 9.78977C46.2079 10.0284 45.901 10.1477 45.5412 10.1477ZM51.1051 14.9545V20H48.6847V11.2727H50.9915V12.8125H51.0938C51.2869 12.3049 51.6108 11.9034 52.0653 11.608C52.5199 11.3087 53.071 11.1591 53.7188 11.1591C54.3248 11.1591 54.8532 11.2917 55.304 11.5568C55.7547 11.822 56.1051 12.2008 56.3551 12.6932C56.6051 13.1818 56.7301 13.7652 56.7301 14.4432V20H54.3097V14.875C54.3134 14.3409 54.1771 13.9242 53.9006 13.625C53.6241 13.322 53.2434 13.1705 52.7585 13.1705C52.4328 13.1705 52.1449 13.2405 51.8949 13.3807C51.6487 13.5208 51.4555 13.7254 51.3153 13.9943C51.179 14.2595 51.1089 14.5795 51.1051 14.9545ZM61.8537 20.142C61.1908 20.142 60.5904 19.9716 60.0526 19.6307C59.5185 19.286 59.0942 18.7803 58.7798 18.1136C58.4692 17.4432 58.3139 16.6212 58.3139 15.6477C58.3139 14.6477 58.4749 13.8163 58.7969 13.1534C59.1188 12.4867 59.5469 11.9886 60.081 11.6591C60.6188 11.3258 61.2079 11.1591 61.848 11.1591C62.3366 11.1591 62.7438 11.2424 63.0696 11.4091C63.3991 11.572 63.6643 11.7765 63.8651 12.0227C64.0696 12.2652 64.2249 12.5038 64.331 12.7386H64.4048V8.36364H66.8196V20H64.4332V18.6023H64.331C64.2173 18.8447 64.0563 19.0852 63.848 19.3239C63.6435 19.5587 63.3764 19.7538 63.0469 19.9091C62.7211 20.0644 62.3234 20.142 61.8537 20.142ZM62.6207 18.2159C63.0109 18.2159 63.3404 18.1098 63.6094 17.8977C63.8821 17.6818 64.0904 17.3807 64.2344 16.9943C64.3821 16.608 64.456 16.1553 64.456 15.6364C64.456 15.1174 64.384 14.6667 64.2401 14.2841C64.0961 13.9015 63.8878 13.6061 63.6151 13.3977C63.3423 13.1894 63.0109 13.0852 62.6207 13.0852C62.223 13.0852 61.8878 13.1932 61.6151 13.4091C61.3423 13.625 61.1359 13.9242 60.9957 14.3068C60.8556 14.6894 60.7855 15.1326 60.7855 15.6364C60.7855 16.1439 60.8556 16.5928 60.9957 16.983C61.1397 17.3693 61.3461 17.6723 61.6151 17.892C61.8878 18.108 62.223 18.2159 62.6207 18.2159ZM73.4517 11.2727V13.0909H68.196V11.2727H73.4517ZM69.3892 9.18182H71.8097V17.3182C71.8097 17.5417 71.8438 17.7159 71.9119 17.8409C71.9801 17.9621 72.0748 18.0473 72.196 18.0966C72.321 18.1458 72.465 18.1705 72.6278 18.1705C72.7415 18.1705 72.8551 18.161 72.9688 18.142C73.0824 18.1193 73.1695 18.1023 73.2301 18.0909L73.6108 19.892C73.4896 19.9299 73.3191 19.9735 73.0994 20.0227C72.8797 20.0758 72.6127 20.108 72.2983 20.1193C71.715 20.142 71.2036 20.0644 70.7642 19.8864C70.3286 19.7083 69.9896 19.4318 69.7472 19.0568C69.5047 18.6818 69.3854 18.2083 69.3892 17.6364V9.18182ZM75.0284 20V11.2727H77.375V12.7955H77.4659C77.625 12.2538 77.892 11.8447 78.267 11.5682C78.642 11.2879 79.0739 11.1477 79.5625 11.1477C79.6837 11.1477 79.8144 11.1553 79.9545 11.1705C80.0947 11.1856 80.2178 11.2064 80.3239 11.233V13.3807C80.2102 13.3466 80.053 13.3163 79.8523 13.2898C79.6515 13.2633 79.4678 13.25 79.3011 13.25C78.9451 13.25 78.6269 13.3277 78.3466 13.483C78.0701 13.6345 77.8504 13.8466 77.6875 14.1193C77.5284 14.392 77.4489 14.7064 77.4489 15.0625V20H75.0284ZM85.1463 20.1705C84.2486 20.1705 83.4759 19.9886 82.8281 19.625C82.1842 19.2576 81.688 18.7386 81.3395 18.0682C80.991 17.3939 80.8168 16.5966 80.8168 15.6761C80.8168 14.7784 80.991 13.9905 81.3395 13.3125C81.688 12.6345 82.1785 12.1061 82.8111 11.7273C83.4474 11.3485 84.1937 11.1591 85.0497 11.1591C85.6255 11.1591 86.1615 11.2519 86.6577 11.4375C87.1577 11.6193 87.5933 11.8939 87.9645 12.2614C88.3395 12.6288 88.6312 13.0909 88.8395 13.6477C89.0478 14.2008 89.152 14.8485 89.152 15.5909V16.2557H81.7827V14.7557H86.8736C86.8736 14.4072 86.7978 14.0985 86.6463 13.8295C86.4948 13.5606 86.2846 13.3504 86.0156 13.1989C85.7505 13.0436 85.4418 12.9659 85.0895 12.9659C84.7221 12.9659 84.3963 13.0511 84.1122 13.2216C83.8319 13.3883 83.6122 13.6136 83.4531 13.8977C83.294 14.178 83.2126 14.4905 83.2088 14.8352V16.2614C83.2088 16.6932 83.2884 17.0663 83.4474 17.3807C83.6103 17.6951 83.8395 17.9375 84.1349 18.108C84.4304 18.2784 84.7808 18.3636 85.1861 18.3636C85.455 18.3636 85.7012 18.3258 85.9247 18.25C86.1482 18.1742 86.3395 18.0606 86.4986 17.9091C86.6577 17.7576 86.7789 17.572 86.8622 17.3523L89.1009 17.5C88.9872 18.0379 88.7543 18.5076 88.402 18.9091C88.0535 19.3068 87.6027 19.6174 87.0497 19.8409C86.5005 20.0606 85.866 20.1705 85.1463 20.1705ZM93.152 14.9545V20H90.7315V11.2727H93.0384V12.8125H93.1406C93.3338 12.3049 93.6577 11.9034 94.1122 11.608C94.5668 11.3087 95.1179 11.1591 95.7656 11.1591C96.3717 11.1591 96.9001 11.2917 97.3509 11.5568C97.8016 11.822 98.152 12.2008 98.402 12.6932C98.652 13.1818 98.777 13.7652 98.777 14.4432V20H96.3565V14.875C96.3603 14.3409 96.224 13.9242 95.9474 13.625C95.6709 13.322 95.2902 13.1705 94.8054 13.1705C94.4796 13.1705 94.1918 13.2405 93.9418 13.3807C93.6955 13.5208 93.5024 13.7254 93.3622 13.9943C93.2259 14.2595 93.1558 14.5795 93.152 14.9545ZM103.901 20.142C103.238 20.142 102.637 19.9716 102.099 19.6307C101.565 19.286 101.141 18.7803 100.827 18.1136C100.516 17.4432 100.361 16.6212 100.361 15.6477C100.361 14.6477 100.522 13.8163 100.844 13.1534C101.166 12.4867 101.594 11.9886 102.128 11.6591C102.666 11.3258 103.255 11.1591 103.895 11.1591C104.384 11.1591 104.791 11.2424 105.116 11.4091C105.446 11.572 105.711 11.7765 105.912 12.0227C106.116 12.2652 106.272 12.5038 106.378 12.7386H106.452V8.36364H108.866V20H106.48V18.6023H106.378C106.264 18.8447 106.103 19.0852 105.895 19.3239C105.69 19.5587 105.423 19.7538 105.094 19.9091C104.768 20.0644 104.37 20.142 103.901 20.142ZM104.668 18.2159C105.058 18.2159 105.387 18.1098 105.656 17.8977C105.929 17.6818 106.137 17.3807 106.281 16.9943C106.429 16.608 106.503 16.1553 106.503 15.6364C106.503 15.1174 106.431 14.6667 106.287 14.2841C106.143 13.9015 105.935 13.6061 105.662 13.3977C105.389 13.1894 105.058 13.0852 104.668 13.0852C104.27 13.0852 103.935 13.1932 103.662 13.4091C103.389 13.625 103.183 13.9242 103.043 14.3068C102.902 14.6894 102.832 15.1326 102.832 15.6364C102.832 16.1439 102.902 16.5928 103.043 16.983C103.187 17.3693 103.393 17.6723 103.662 17.892C103.935 18.108 104.27 18.2159 104.668 18.2159Z" fill="white"/>
<path d="M20.6092 14.3432C20.5798 14.1965 20.5093 14.0612 20.4058 13.9531C20.3023 13.845 20.1702 13.7686 20.0249 13.7328L14.5941 12.3743L16.6025 7.68688C16.6725 7.52422 16.6858 7.34276 16.6403 7.17164C16.5948 7.00051 16.4931 6.84963 16.3516 6.74321C16.2103 6.6361 16.0371 6.57971 15.8598 6.58316C15.6826 6.5866 15.5117 6.64968 15.3747 6.76221L6.66633 13.8872C6.55274 13.9801 6.46722 14.1028 6.4193 14.2415C6.37139 14.3802 6.36298 14.5295 6.39501 14.6727C6.42703 14.816 6.49824 14.9475 6.60067 15.0526C6.7031 15.1576 6.83273 15.2322 6.97508 15.2679L12.2943 16.5987L9.64617 21.2331C9.57785 21.3535 9.54226 21.4897 9.54295 21.6281C9.54364 21.7665 9.58057 21.9024 9.65008 22.0221C9.71958 22.1418 9.81923 22.2412 9.93911 22.3104C10.059 22.3797 10.1949 22.4163 10.3333 22.4166C10.5047 22.4169 10.6714 22.3613 10.8083 22.2583L20.3083 15.1333C20.428 15.0435 20.5198 14.9216 20.573 14.7818C20.6263 14.6419 20.6388 14.4899 20.6092 14.3432V14.3432Z" fill="black"/>
</svg>
