<svg width="315" height="36" viewBox="0 0 315 36" fill="none" xmlns="http://www.w3.org/2000/svg">
<rect width="35" height="35" rx="4" fill="white"/>
<rect x="40" y="0.000244141" width="35" height="35" rx="4" fill="white"/>
<rect x="80" y="0.000488281" width="35" height="35" rx="4" fill="white"/>
<rect x="120" y="0.000732422" width="35" height="35" rx="4" fill="white"/>
<rect x="160" y="0.000976562" width="35" height="35" rx="4" fill="white"/>
<rect x="200" y="0.0012207" width="35" height="35" rx="4" fill="white"/>
<rect x="240" y="0.00146484" width="35" height="35" rx="4" fill="white"/>
<rect x="280" y="0.00170898" width="35" height="35" rx="4" fill="white"/>
<circle cx="18" cy="17.0002" r="8.25" fill="#1ED760"/>
<path d="M22.4085 16.113C19.918 14.6247 15.8099 14.4879 13.4325 15.2141C13.0507 15.3306 12.647 15.1137 12.5313 14.7295C12.4156 14.3452 12.6309 13.9392 13.013 13.8224C15.7421 12.9887 20.2791 13.1498 23.1462 14.8624C23.4896 15.0675 23.6022 15.5137 23.3987 15.8587C23.195 16.2043 22.7511 16.3182 22.4085 16.113ZM22.327 18.3173C22.1522 18.6026 21.7815 18.6921 21.4984 18.5169C19.422 17.2327 16.2559 16.8607 13.7995 17.6109C13.4809 17.7079 13.1444 17.5271 13.0477 17.2072C12.9517 16.8866 13.1314 16.5487 13.4493 16.4512C16.2556 15.5944 19.744 16.0094 22.1288 17.484C22.4119 17.6595 22.5011 18.0328 22.327 18.3173ZM21.3816 20.4343C21.2427 20.6634 20.9463 20.7352 20.7194 20.5956C18.905 19.4798 16.6214 19.2278 13.932 19.8459C13.6728 19.9057 13.4146 19.7423 13.3554 19.4815C13.2961 19.2208 13.4578 18.9609 13.7176 18.9014C16.6607 18.2244 19.1853 18.5157 21.2218 19.7679C21.4488 19.9075 21.5203 20.2059 21.3816 20.4343Z" fill="white"/>
<path d="M50.2083 10.3148C50.2083 9.70396 50.7036 9.20874 51.3144 9.20874H64.6856C65.2964 9.20874 65.7917 9.70396 65.7917 10.3148V23.6859C65.7917 24.2968 65.2964 24.792 64.6856 24.792H51.3144C50.7036 24.792 50.2083 24.2968 50.2083 23.6859V10.3148Z" fill="#0A66C2"/>
<path d="M53.7061 14.0482C54.4527 14.0482 55.0579 13.4429 55.0579 12.6963C55.0579 11.9497 54.4527 11.3445 53.7061 11.3445C52.9595 11.3445 52.3542 11.9497 52.3542 12.6963C52.3542 13.4429 52.9595 14.0482 53.7061 14.0482Z" fill="white"/>
<path d="M56.296 15.0472H58.5364V16.0736C58.5364 16.0736 59.1444 14.8576 60.7986 14.8576C62.2743 14.8576 63.4967 15.5846 63.4967 17.8003V22.4727H61.1749V18.3665C61.1749 17.0594 60.4771 16.9157 59.9454 16.9157C58.8418 16.9157 58.6529 17.8675 58.6529 18.537V22.4727H56.296V15.0472Z" fill="white"/>
<path d="M52.5276 15.0472H54.8845V22.4727H52.5276V15.0472Z" fill="white"/>
<path fill-rule="evenodd" clip-rule="evenodd" d="M105.124 13.4155C105.13 13.5758 105.132 13.736 105.132 13.8963C105.132 18.7567 101.713 24.3677 95.4611 24.3677C93.5406 24.3677 91.7547 23.7556 90.25 22.7135C90.516 22.7427 90.7861 22.7646 91.0604 22.7646C92.6528 22.7646 94.1195 22.1742 95.2829 21.1832C93.7955 21.1614 92.5395 20.0902 92.1064 18.6328C92.3143 18.6765 92.5285 18.6985 92.7475 18.6985C93.0563 18.6985 93.3561 18.6548 93.6435 18.5674C92.087 18.2322 90.9146 16.7457 90.9146 14.9604C90.9146 14.9385 90.9146 14.9312 90.9146 14.9166C91.3734 15.1862 91.8984 15.3537 92.4559 15.3756C91.5426 14.7125 90.9423 13.5831 90.9423 12.3079C90.9423 11.6375 91.1094 11.0035 91.4037 10.457C93.0797 12.6867 95.5855 14.1514 98.4104 14.3045C98.3523 14.0348 98.3226 13.7507 98.3226 13.4665C98.3226 11.4335 99.8446 9.78662 101.722 9.78662C102.7 9.78662 103.583 10.2312 104.202 10.9453C104.978 10.785 105.705 10.479 106.363 10.0563C106.108 10.9162 105.57 11.6374 104.866 12.0892C105.554 12.0018 106.211 11.8052 106.819 11.5137C106.363 12.2497 105.788 12.8981 105.124 13.4155Z" fill="#1EA1F2"/>
<path d="M138 25.251C142.556 25.251 146.25 21.5573 146.25 17.001C146.25 12.4446 142.556 8.75098 138 8.75098C133.444 8.75098 129.75 12.4446 129.75 17.001C129.75 21.5573 133.444 25.251 138 25.251Z" fill="#EA4C89"/>
<path fill-rule="evenodd" clip-rule="evenodd" d="M138 8.75098C133.446 8.75098 129.75 12.4465 129.75 17.001C129.75 21.5555 133.446 25.251 138 25.251C142.546 25.251 146.25 21.5555 146.25 17.001C146.25 12.4465 142.546 8.75098 138 8.75098ZM143.449 12.5538C144.434 13.7529 145.024 15.283 145.042 16.9383C144.809 16.8936 142.483 16.4194 140.139 16.7146C140.085 16.5983 140.04 16.473 139.986 16.3478C139.843 16.0078 139.682 15.6588 139.521 15.3277C142.116 14.2719 143.297 12.7507 143.449 12.5538ZM138 9.9679C139.79 9.9679 141.427 10.639 142.671 11.7396C142.546 11.9185 141.481 13.3413 138.975 14.2808C137.821 12.1601 136.541 10.4242 136.345 10.1558C136.873 10.0305 137.427 9.9679 138 9.9679ZM135.002 10.63C135.19 10.8806 136.443 12.6254 137.615 14.7014C134.322 15.5782 131.414 15.5604 131.101 15.5604C131.557 13.3771 133.034 11.5606 135.002 10.63ZM130.949 17.0099C130.949 16.9383 130.949 16.8668 130.949 16.7952C131.253 16.8041 134.671 16.8489 138.188 15.793C138.394 16.1867 138.582 16.5894 138.761 16.992C138.671 17.0189 138.573 17.0457 138.483 17.0726C134.85 18.2447 132.918 21.4481 132.757 21.7165C131.638 20.4728 130.949 18.8174 130.949 17.0099ZM138 24.052C136.371 24.052 134.868 23.4972 133.678 22.5666C133.803 22.3071 135.235 19.5511 139.208 18.1642C139.226 18.1553 139.235 18.1553 139.253 18.1463C140.246 20.7144 140.649 22.8708 140.756 23.4882C139.906 23.8551 138.975 24.052 138 24.052ZM141.928 22.844C141.857 22.4145 141.481 20.3565 140.559 17.8242C142.769 17.4752 144.702 18.0479 144.944 18.1284C144.639 20.088 143.512 21.7792 141.928 22.844Z" fill="#C32361"/>
<path d="M178 25.2512C173.444 25.2512 169.75 21.5577 169.75 17.0012C169.75 12.4447 173.444 8.75122 178 8.75122C182.556 8.75122 186.25 12.4447 186.25 17.0012C186.25 21.5577 182.556 25.2512 178 25.2512ZM183.503 17.0012C183.494 16.769 183.419 16.5442 183.285 16.3539C183.152 16.1636 182.966 16.016 182.751 15.9288C182.536 15.8416 182.3 15.8185 182.071 15.8624C181.843 15.9063 181.633 16.0153 181.465 16.1762C180.526 15.5383 179.423 15.1858 178.289 15.1615L178.825 12.5875L180.591 12.9587C180.611 13.1538 180.701 13.335 180.844 13.4699C180.986 13.6047 181.172 13.6843 181.368 13.6944C181.564 13.7045 181.757 13.6444 181.913 13.5249C182.069 13.4054 182.177 13.2344 182.218 13.0424C182.259 12.8505 182.23 12.6503 182.136 12.4778C182.043 12.3052 181.891 12.1716 181.708 12.1009C181.525 12.0302 181.323 12.0271 181.138 12.092C180.952 12.157 180.796 12.2859 180.698 12.4555L178.676 12.0512C178.643 12.044 178.609 12.0433 178.576 12.0494C178.543 12.0554 178.511 12.068 178.483 12.0865C178.454 12.1049 178.43 12.1288 178.411 12.1567C178.391 12.1846 178.378 12.2161 178.371 12.2492L177.761 15.112C176.612 15.1293 175.494 15.482 174.543 16.1267C174.416 16.0071 174.264 15.9165 174.099 15.8613C173.933 15.806 173.757 15.7875 173.584 15.8069C173.41 15.8264 173.243 15.8833 173.094 15.9738C172.944 16.0643 172.816 16.1862 172.719 16.331C172.621 16.4758 172.556 16.6402 172.529 16.8126C172.501 16.985 172.511 17.1613 172.558 17.3295C172.605 17.4976 172.689 17.6535 172.802 17.7862C172.915 17.919 173.056 18.0256 173.215 18.0985C173.206 18.2193 173.206 18.3406 173.215 18.4615C173.215 20.3095 175.368 21.811 178.025 21.811C180.681 21.811 182.835 20.3095 182.835 18.4615C182.844 18.3406 182.844 18.2193 182.835 18.0985C183.038 17.9973 183.209 17.8405 183.327 17.6464C183.445 17.4522 183.506 17.2285 183.503 17.0012V17.0012ZM175.253 17.8262C175.253 17.6074 175.34 17.3976 175.494 17.2429C175.649 17.0881 175.859 17.0012 176.078 17.0012C176.297 17.0012 176.506 17.0881 176.661 17.2429C176.816 17.3976 176.903 17.6074 176.903 17.8262C176.903 18.045 176.816 18.2549 176.661 18.4096C176.506 18.5643 176.297 18.6512 176.078 18.6512C175.859 18.6512 175.649 18.5643 175.494 18.4096C175.34 18.2549 175.253 18.045 175.253 17.8262ZM180.046 20.095C179.461 20.5361 178.741 20.7606 178.008 20.7302C177.276 20.7606 176.556 20.5361 175.97 20.095C175.935 20.0522 175.917 19.998 175.92 19.9427C175.923 19.8875 175.946 19.8352 175.985 19.7961C176.024 19.757 176.077 19.7339 176.132 19.7312C176.187 19.7285 176.241 19.7464 176.284 19.7815C176.78 20.1453 177.385 20.3287 178 20.3012C178.615 20.3347 179.224 20.1571 179.724 19.798C179.745 19.7743 179.771 19.7553 179.8 19.742C179.829 19.7288 179.86 19.7216 179.891 19.7209C179.923 19.7202 179.955 19.726 179.984 19.738C180.013 19.75 180.04 19.7679 180.062 19.7906C180.084 19.8132 180.101 19.8402 180.113 19.8699C180.124 19.8995 180.129 19.9311 180.127 19.9627C180.126 19.9944 180.118 20.0254 180.104 20.0538C180.09 20.0822 180.07 20.1075 180.046 20.128V20.095V20.095ZM179.898 18.6842C179.734 18.6842 179.575 18.6358 179.439 18.5452C179.303 18.4545 179.198 18.3257 179.135 18.1749C179.073 18.0242 179.057 17.8583 179.088 17.6983C179.12 17.5382 179.199 17.3912 179.314 17.2759C179.43 17.1605 179.577 17.0819 179.737 17.0501C179.897 17.0182 180.062 17.0346 180.213 17.097C180.364 17.1595 180.493 17.2652 180.583 17.4009C180.674 17.5365 180.722 17.6961 180.722 17.8592C180.727 17.971 180.709 18.0825 180.669 18.187C180.629 18.2915 180.568 18.3868 180.49 18.467C180.412 18.5473 180.319 18.6109 180.215 18.6539C180.112 18.6969 180.001 18.7184 179.889 18.7172L179.898 18.6842Z" fill="#FC471E"/>
<path fill-rule="evenodd" clip-rule="evenodd" d="M214.574 11.5015C215.025 11.4931 215.474 11.5393 215.913 11.639C216.283 11.7197 216.634 11.8699 216.948 12.0817C217.238 12.2923 217.467 12.5754 217.613 12.9026C217.78 13.3049 217.861 13.7381 217.85 14.1738C217.869 14.6522 217.747 15.1256 217.499 15.535C217.238 15.9217 216.877 16.2306 216.454 16.4288C217.028 16.5833 217.527 16.9373 217.862 17.427C218.185 17.9459 218.347 18.5483 218.328 19.1588C218.339 19.6456 218.238 20.1283 218.034 20.5703C217.845 20.9558 217.568 21.2918 217.227 21.5513C216.875 21.808 216.478 21.9979 216.058 22.1116C215.622 22.2323 215.171 22.2929 214.719 22.2918H209.75V11.5015H214.574ZM214.288 15.8657C214.641 15.8803 214.99 15.7744 215.275 15.5653C215.412 15.4434 215.519 15.2912 215.586 15.1209C215.654 14.9505 215.681 14.7667 215.665 14.5842C215.674 14.371 215.631 14.1587 215.541 13.9655C215.464 13.8116 215.345 13.6829 215.197 13.5949C215.047 13.498 214.879 13.4331 214.703 13.4045C214.513 13.3675 214.318 13.3506 214.124 13.3543H212.001V15.8753H214.288V15.8657ZM214.411 20.4596C214.625 20.4625 214.839 20.4394 215.047 20.3908C215.238 20.3488 215.418 20.2706 215.579 20.1605C215.737 20.0505 215.865 19.9025 215.95 19.7301C216.049 19.5104 216.094 19.2703 216.083 19.0296C216.104 18.8102 216.075 18.5888 215.998 18.3824C215.92 18.176 215.797 17.9901 215.636 17.8388C215.297 17.5885 214.88 17.4645 214.459 17.4882H212.001V20.4596H214.411Z" fill="#191919"/>
<path fill-rule="evenodd" clip-rule="evenodd" d="M221.534 20.4197C221.71 20.5835 221.919 20.7096 222.145 20.7904C222.372 20.8713 222.613 20.9051 222.854 20.89C223.235 20.8996 223.609 20.7836 223.917 20.56C224.168 20.3966 224.359 20.155 224.458 19.8725H226.253C226.062 20.6767 225.595 21.3885 224.933 21.8841C224.299 22.3054 223.549 22.5188 222.787 22.4946C222.244 22.5017 221.704 22.3995 221.201 22.1941C220.746 22.0043 220.338 21.7173 220.005 21.3533C219.673 20.9719 219.419 20.53 219.255 20.0519C219.071 19.5175 218.981 18.9553 218.989 18.3902C218.985 17.8346 219.078 17.2826 219.264 16.7588C219.513 16.0218 219.989 15.3827 220.623 14.9331C221.258 14.4835 222.019 14.2466 222.797 14.2563C223.371 14.2443 223.939 14.3786 224.447 14.6468C224.906 14.8985 225.302 15.2511 225.605 15.678C225.915 16.126 226.138 16.6287 226.26 17.1596C226.395 17.7296 226.443 18.3167 226.403 18.901H221.056C221.013 19.45 221.184 19.9944 221.534 20.4197ZM223.88 16.316C223.73 16.1664 223.55 16.0505 223.352 15.9763C223.154 15.902 222.942 15.8711 222.731 15.8856C222.451 15.875 222.173 15.937 221.924 16.0658C221.726 16.1744 221.552 16.3206 221.411 16.4961C221.285 16.6607 221.192 16.8472 221.136 17.0461C221.085 17.212 221.053 17.3832 221.041 17.5563H224.353C224.324 17.105 224.159 16.673 223.881 16.3167L223.88 16.316Z" fill="#191919"/>
<path d="M220.614 12.2219H224.764V13.2828H220.614V12.2219Z" fill="#191919"/>
<path d="M256.625 25.16C252.729 24.4725 249.75 21.0809 249.75 17.0017C249.75 12.4642 253.463 8.75171 258 8.75171C262.538 8.75171 266.25 12.4642 266.25 17.0017C266.25 21.0809 263.271 24.4725 259.375 25.16L258.917 24.7934H257.083L256.625 25.16Z" fill="url(#paint0_linear_0_1)"/>
<path d="M261.208 19.2933L261.575 17.0016H259.375V15.3975C259.375 14.7558 259.604 14.2516 260.613 14.2516H261.667V12.1433C261.071 12.0516 260.429 11.96 259.833 11.96C257.954 11.96 256.625 13.1058 256.625 15.1683V17.0016H254.562V19.2933H256.625V25.1141C257.083 25.2058 257.542 25.2516 258 25.2516C258.458 25.2516 258.917 25.2058 259.375 25.1141V19.2933H261.208Z" fill="white"/>
<path d="M299.126 8.82895C297.152 8.55745 295.147 9.00923 293.48 10.1009C291.813 11.1925 290.598 12.8503 290.058 14.7681C289.519 16.6858 289.691 18.7341 290.544 20.5347C291.397 22.3353 292.872 23.7665 294.698 24.5641C294.648 23.9305 294.694 23.293 294.832 22.6727C294.985 21.9806 295.901 18.1665 295.901 18.1665C295.719 17.7574 295.628 17.3135 295.634 16.8656C295.634 15.6407 296.341 14.7268 297.22 14.7268C297.378 14.7245 297.535 14.7562 297.679 14.8198C297.824 14.8835 297.953 14.9775 298.058 15.0955C298.163 15.2135 298.242 15.3528 298.288 15.5038C298.334 15.6548 298.348 15.814 298.327 15.9707C298.327 16.713 297.85 17.8365 297.601 18.8907C297.552 19.084 297.549 19.2862 297.592 19.481C297.635 19.6757 297.724 19.8576 297.85 20.012C297.977 20.1663 298.137 20.2888 298.32 20.3696C298.502 20.4503 298.701 20.4871 298.9 20.4769C300.466 20.4769 301.515 18.4717 301.515 16.1043C301.515 14.2896 300.313 12.9302 298.098 12.9302C297.568 12.9096 297.039 12.9969 296.544 13.1869C296.048 13.3769 295.597 13.6656 295.217 14.0354C294.836 14.4052 294.535 14.8485 294.331 15.3383C294.128 15.8281 294.025 16.3542 294.031 16.8846C294.008 17.473 294.197 18.0501 294.566 18.5096C294.635 18.561 294.685 18.6333 294.709 18.7158C294.733 18.7982 294.73 18.8862 294.699 18.9666C294.661 19.1184 294.566 19.4805 294.528 19.6133C294.52 19.6583 294.502 19.7009 294.474 19.7375C294.447 19.7742 294.411 19.8039 294.37 19.8242C294.329 19.8446 294.284 19.8551 294.239 19.8549C294.193 19.8546 294.148 19.8436 294.107 19.8228C292.965 19.3658 292.428 18.1095 292.428 16.6751C292.428 14.3267 294.394 11.5155 298.329 11.5155C301.46 11.5155 303.542 13.8062 303.542 16.2561C303.542 19.4805 301.746 21.9048 299.093 21.9048C298.696 21.9174 298.303 21.8299 297.949 21.6503C297.595 21.4706 297.292 21.2047 297.068 20.877C297.068 20.877 296.592 22.7874 296.498 23.1487C296.306 23.7728 296.022 24.3652 295.657 24.9065C296.418 25.1374 297.209 25.2529 298.005 25.2496C299.088 25.2505 300.161 25.0376 301.162 24.6232C302.163 24.2087 303.073 23.6009 303.839 22.8345C304.605 22.068 305.212 21.158 305.626 20.1566C306.039 19.1552 306.252 18.082 306.25 16.9984C306.249 15.0064 305.527 13.082 304.218 11.5805C302.909 10.0791 301.101 9.10203 299.127 8.82977L299.126 8.82895Z" fill="#BB0F23"/>
<defs>
<linearGradient id="paint0_linear_0_1" x1="258" y1="24.6806" x2="258" y2="8.75171" gradientUnits="userSpaceOnUse">
<stop stop-color="#0062E0"/>
<stop offset="1" stop-color="#19AFFF"/>
</linearGradient>
</defs>
</svg>
